<svg xmlns="http://www.w3.org/2000/svg" xmlns:xlink="http://www.w3.org/1999/xlink" width="200" zoomAndPan="magnify" viewBox="0 0 150 44.999999" height="60" preserveAspectRatio="xMidYMid meet" version="1.0"><defs><g/><clipPath id="a176eb9397"><path d="M 15 4.5 L 29 4.5 L 29 14 L 15 14 Z M 15 4.5 " clip-rule="nonzero"/></clipPath><clipPath id="6499e7bbcb"><path d="M 18 4.5 L 28 4.5 L 28 11 L 18 11 Z M 18 4.5 " clip-rule="nonzero"/></clipPath><clipPath id="1062610814"><path d="M 30 22 L 46 22 L 46 40.5 L 30 40.5 Z M 30 22 " clip-rule="nonzero"/></clipPath><clipPath id="782f9a6c33"><path d="M 31 24 L 44 24 L 44 40.5 L 31 40.5 Z M 31 24 " clip-rule="nonzero"/></clipPath><clipPath id="eda43475ea"><path d="M 22 4.5 L 42 4.5 L 42 17 L 22 17 Z M 22 4.5 " clip-rule="nonzero"/></clipPath><clipPath id="43d884d36b"><path d="M 8.25 16 L 24 16 L 24 35 L 8.25 35 Z M 8.25 16 " clip-rule="nonzero"/></clipPath><clipPath id="76700dc28f"><path d="M 8.25 16 L 23 16 L 23 31 L 8.25 31 Z M 8.25 16 " clip-rule="nonzero"/></clipPath><clipPath id="92c66d119c"><path d="M 15 4.5 L 24 4.5 L 24 14 L 15 14 Z M 15 4.5 " clip-rule="nonzero"/></clipPath><clipPath id="5343958393"><path d="M 30 22 L 46 22 L 46 40.5 L 30 40.5 Z M 30 22 " clip-rule="nonzero"/></clipPath><clipPath id="e2cec48588"><path d="M 8.25 16 L 25 16 L 25 35 L 8.25 35 Z M 8.25 16 " clip-rule="nonzero"/></clipPath><clipPath id="8b83c2535a"><path d="M 22 4.5 L 42 4.5 L 42 18 L 22 18 Z M 22 4.5 " clip-rule="nonzero"/></clipPath></defs><path fill="#009748" d="M 15.554688 34.578125 C 15.570312 34.601562 16.765625 36.992188 26.183594 36.269531 C 24.960938 34.769531 23.839844 33.390625 23.34375 31.5 C 23.503906 31.101562 23.691406 30.734375 23.902344 30.386719 C 22.039062 29.589844 21.230469 28.71875 20.453125 27.902344 C 18.761719 27.796875 17.449219 27.40625 16.871094 26.605469 C 14.875 28.257812 14.894531 32.773438 15.554688 34.578125 " fill-opacity="1" fill-rule="evenodd"/><path fill="#006b30" d="M 23.414062 31.40625 C 22.425781 30.980469 20.402344 30.097656 19.222656 27.757812 C 19.609375 27.851562 20.003906 27.875 20.292969 27.863281 C 20.292969 27.863281 22.011719 29.8125 23.972656 30.457031 L 23.414062 31.40625 " fill-opacity="1" fill-rule="evenodd"/><path fill="#006b30" d="M 15.554688 34.578125 C 16.296875 35.859375 18.925781 36.113281 20.28125 36.253906 C 18.566406 33.644531 17.308594 30.289062 18.085938 27.4375 C 17.769531 27.304688 17.570312 27.175781 17.425781 27.085938 C 15.214844 30.019531 14.894531 32.773438 15.554688 34.578125 " fill-opacity="1" fill-rule="evenodd"/><g clip-path="url(#a176eb9397)"><path fill="#009748" d="M 22.261719 4.691406 C 22.230469 4.691406 19.5625 4.53125 15.480469 13.046875 C 17.390625 12.738281 19.144531 12.457031 21.03125 12.976562 C 21.261719 13.265625 21.460938 13.566406 21.636719 13.871094 C 22.726562 13.085938 23.871094 12.316406 25.839844 11.914062 C 26.703125 10.699219 27.613281 9.90625 28.507812 9.816406 C 28.074219 7.261719 24.152344 5.019531 22.261719 4.691406 " fill-opacity="1" fill-rule="evenodd"/></g><path fill="#006b30" d="M 21.199219 13.113281 C 21.199219 13.113281 23.613281 11.125 26.472656 11.070312 C 26.472656 11.070312 26.070312 11.496094 25.871094 11.898438 C 25.871094 11.898438 23.148438 12.5 21.613281 13.875 L 21.199219 13.113281 " fill-opacity="1" fill-rule="evenodd"/><g clip-path="url(#6499e7bbcb)"><path fill="#006b30" d="M 22.261719 4.691406 C 20.777344 4.691406 19.246094 6.84375 18.445312 7.945312 C 21.5625 7.765625 25.097656 8.355469 27.179688 10.453125 C 27.453125 10.246094 27.667969 10.136719 27.8125 10.058594 C 26.378906 6.675781 24.152344 5.019531 22.261719 4.691406 " fill-opacity="1" fill-rule="evenodd"/></g><path fill="#009748" d="M 45.621094 22.738281 C 45.628906 22.710938 46.472656 20.175781 39.304688 14.03125 C 39.109375 15.957031 38.925781 17.722656 37.9375 19.410156 C 37.726562 19.5 37.519531 19.578125 37.308594 19.644531 C 37.585938 20.828125 37.648438 22.433594 37.191406 23.726562 C 38.464844 25.097656 39.222656 26.402344 39.054688 27.445312 C 41.632812 27.6875 44.816406 24.480469 45.621094 22.738281 " fill-opacity="1" fill-rule="evenodd"/><path fill="#006b30" d="M 38.121094 19.058594 C 38.347656 19.84375 39.058594 21.984375 37.957031 24.617188 C 37.75 24.332031 37.519531 23.992188 37.234375 23.816406 C 37.375 23.167969 37.683594 21.621094 37.351562 19.609375 L 37.996094 19.4375 L 38.121094 19.058594 " fill-opacity="1" fill-rule="evenodd"/><path fill="#006b30" d="M 45.621094 22.738281 C 46.003906 21.308594 44.324219 19.269531 43.46875 18.214844 C 42.835938 21.269531 41.347656 24.53125 38.78125 26 C 38.914062 26.316406 38.960938 26.550781 39 26.710938 C 42.640625 26.203125 44.816406 24.480469 45.621094 22.738281 " fill-opacity="1" fill-rule="evenodd"/><path fill="#05a1e6" d="M 27.765625 11.742188 C 28.054688 11.742188 28.339844 11.757812 28.621094 11.78125 C 28.871094 12.433594 29.121094 13.148438 29.359375 13.925781 C 28.25 14.390625 26.734375 15.199219 25.464844 16.273438 C 29.128906 16.203125 32.355469 16.046875 36.101562 16.855469 C 36.132812 16.765625 36.160156 16.671875 36.191406 16.582031 C 37.035156 18.023438 37.515625 19.703125 37.515625 21.492188 C 37.515625 23.609375 36.839844 25.566406 35.695312 27.164062 C 35.425781 27.179688 35.148438 27.195312 34.863281 27.207031 C 34.703125 26.011719 34.3125 24.339844 33.601562 22.835938 C 32.929688 25.542969 32.375 28.019531 31.375 30.546875 C 30.257812 30.992188 29.042969 31.238281 27.765625 31.238281 C 23.707031 31.238281 20.226562 28.757812 18.757812 25.230469 C 19.136719 24.773438 19.550781 24.300781 20.003906 23.8125 C 20.960938 24.542969 22.417969 25.449219 23.988281 26.011719 C 22.132812 22.941406 20.417969 20.277344 19.25 16.746094 C 20.914062 13.761719 24.105469 11.742188 27.765625 11.742188 " fill-opacity="1" fill-rule="evenodd"/><path fill="#115fa2" d="M 31.375 30.546875 C 30.257812 30.992188 29.042969 31.238281 27.765625 31.238281 C 23.707031 31.238281 20.226562 28.757812 18.757812 25.230469 C 18.851562 25.121094 18.941406 25.011719 19.035156 24.902344 C 20.882812 26.28125 23.171875 27.097656 25.65625 27.097656 C 28.625 27.097656 31.320312 25.925781 33.308594 24.023438 C 32.757812 26.277344 32.226562 28.394531 31.375 30.546875 Z M 36.636719 17.441406 C 37.203125 18.675781 37.515625 20.046875 37.515625 21.492188 C 37.515625 23.609375 36.839844 25.566406 35.695312 27.164062 C 35.425781 27.179688 35.148438 27.195312 34.863281 27.207031 C 34.722656 26.171875 34.414062 24.78125 33.871094 23.449219 C 35.347656 21.8125 36.34375 19.738281 36.636719 17.441406 " fill-opacity="1" fill-rule="evenodd"/><path fill="#fddf4c" d="M 21.683594 16.703125 C 21.683594 16.703125 21.714844 15.785156 21.875 15.703125 C 22.035156 15.625 22.042969 15.777344 22.089844 16.058594 C 22.136719 16.339844 22.25 17.296875 22.417969 17.511719 C 22.582031 17.726562 22.554688 18.082031 22.421875 18.234375 C 22.289062 18.390625 22.390625 18.578125 22.738281 18.589844 C 23.085938 18.601562 23.230469 18.789062 23.335938 18.9375 C 23.445312 19.085938 24.046875 19.097656 24.046875 19.097656 C 24.046875 19.097656 24.398438 18.695312 24.140625 18.320312 C 23.878906 17.945312 23.832031 17.90625 23.800781 17.636719 C 23.765625 17.371094 24 17.136719 24.132812 16.855469 C 24.265625 16.574219 25.105469 15.097656 25.199219 14.65625 C 25.292969 14.21875 24.796875 12.804688 24.144531 12.804688 C 23.488281 12.804688 22.523438 13.492188 22.523438 13.492188 C 22.523438 13.492188 22.261719 13.84375 22.0625 14.007812 C 21.863281 14.175781 21.449219 14.425781 21.246094 14.765625 C 21.046875 15.109375 21.273438 15.273438 21.375 15.542969 C 21.476562 15.808594 21.074219 16.507812 21.339844 16.9375 C 21.609375 17.363281 21.6875 17.296875 21.6875 17.296875 L 21.683594 16.703125 " fill-opacity="1" fill-rule="evenodd"/><path fill="#fddf4c" d="M 30.015625 30.535156 C 30.015625 30.535156 29.597656 30.761719 29.183594 30.972656 C 28.769531 31.179688 28.238281 31.058594 28.238281 31.058594 C 28.238281 31.058594 28.519531 30.480469 28.648438 30.355469 C 28.773438 30.226562 29 30.132812 29.035156 29.773438 C 29.066406 29.410156 29.015625 29.351562 29.1875 29.054688 C 29.363281 28.761719 29.695312 28.136719 29.695312 27.894531 C 29.695312 27.65625 29.6875 27.28125 29.3125 27.042969 C 28.933594 26.804688 28.40625 26.664062 28.121094 26.074219 C 27.832031 25.488281 27.945312 25.21875 27.644531 24.835938 C 27.34375 24.457031 26.996094 24.242188 27.179688 24.082031 C 27.359375 23.917969 27.546875 23.867188 27.546875 23.867188 C 27.546875 23.867188 27.292969 23.730469 27.34375 23.539062 C 27.398438 23.34375 27.59375 23.117188 27.679688 22.882812 C 27.765625 22.648438 27.886719 22.460938 28.113281 22.488281 C 28.339844 22.511719 28.375 22.535156 28.367188 22.394531 C 28.359375 22.253906 28.375 21.433594 28.195312 21.222656 C 28.011719 21.007812 28.167969 20.777344 28.300781 20.914062 C 28.433594 21.046875 28.460938 21.175781 28.585938 20.96875 C 28.714844 20.757812 28.980469 20.4375 29.15625 20.363281 C 29.328125 20.289062 29.988281 20.023438 30.089844 20.148438 C 30.191406 20.269531 30.824219 20.710938 31.070312 20.683594 C 31.320312 20.664062 31.777344 20.476562 31.777344 20.476562 C 31.777344 20.476562 31.933594 20.460938 32.054688 20.730469 C 32.171875 20.996094 32.355469 20.984375 32.53125 21.105469 C 32.707031 21.230469 32.832031 21.496094 33 21.570312 C 33.171875 21.644531 33.945312 21.691406 34.097656 21.863281 C 34.25 22.039062 34.21875 22.558594 34.21875 22.734375 C 34.21875 22.910156 34.351562 23.015625 34.625 23.035156 C 34.898438 23.054688 35.144531 23.144531 35.191406 23.398438 C 35.238281 23.652344 35.71875 23.410156 35.847656 23.542969 C 35.972656 23.679688 36.066406 23.8125 36.207031 23.859375 C 36.347656 23.90625 36.355469 24.039062 36.21875 24.507812 C 36.085938 24.976562 35.554688 25.601562 35.367188 25.957031 C 35.179688 26.308594 35.023438 26.511719 34.90625 26.800781 C 34.878906 26.859375 34.855469 26.921875 34.832031 26.988281 C 34.65625 25.8125 34.269531 24.253906 33.601562 22.835938 C 33.003906 25.246094 32.5 27.472656 31.6875 29.71875 C 31.417969 29.71875 31.289062 29.640625 31.28125 29.832031 C 31.277344 30.023438 31.023438 30.082031 30.675781 30.160156 C 30.328125 30.242188 30.285156 30.421875 30.015625 30.535156 " fill-opacity="1" fill-rule="evenodd"/><path fill="#e4ac30" d="M 33.871094 23.449219 C 34.019531 23.28125 34.164062 23.109375 34.304688 22.933594 C 34.375 22.988281 34.480469 23.023438 34.625 23.035156 C 34.898438 23.054688 35.144531 23.144531 35.191406 23.398438 C 35.238281 23.652344 35.71875 23.410156 35.847656 23.542969 C 35.972656 23.679688 36.066406 23.8125 36.207031 23.859375 C 36.347656 23.90625 36.355469 24.039062 36.21875 24.507812 C 36.085938 24.976562 35.554688 25.601562 35.367188 25.957031 C 35.179688 26.308594 35.023438 26.511719 34.90625 26.800781 C 34.878906 26.859375 34.855469 26.921875 34.832031 26.988281 C 34.679688 25.980469 34.375 24.6875 33.871094 23.449219 Z M 30.015625 30.535156 C 30.015625 30.535156 29.597656 30.761719 29.183594 30.972656 C 28.769531 31.179688 28.238281 31.058594 28.238281 31.058594 C 28.238281 31.058594 28.519531 30.480469 28.648438 30.355469 C 28.773438 30.226562 29 30.132812 29.035156 29.773438 C 29.066406 29.410156 29.015625 29.351562 29.1875 29.054688 C 29.363281 28.761719 29.695312 28.136719 29.695312 27.894531 C 29.695312 27.65625 29.6875 27.28125 29.3125 27.042969 C 29.117188 26.921875 28.886719 26.824219 28.667969 26.683594 C 30.433594 26.183594 32.019531 25.257812 33.308594 24.023438 C 32.828125 25.988281 32.363281 27.847656 31.6875 29.71875 C 31.417969 29.71875 31.289062 29.640625 31.28125 29.832031 C 31.277344 30.023438 31.023438 30.082031 30.675781 30.160156 C 30.328125 30.242188 30.285156 30.421875 30.015625 30.535156 " fill-opacity="1" fill-rule="evenodd"/><path fill="#8cd02f" d="M 27.558594 16.230469 C 27.410156 16.234375 27.261719 16.238281 27.113281 16.242188 C 27.128906 16.296875 27.136719 16.347656 27.144531 16.386719 C 27.171875 16.535156 27.3125 17.089844 27.546875 17.03125 C 27.738281 16.980469 27.671875 16.632812 27.558594 16.230469 Z M 22.128906 15.871094 C 22.128906 15.871094 22.476562 15.441406 22.511719 15.804688 C 22.542969 16.164062 22.523438 16.582031 22.703125 17.042969 C 22.882812 17.503906 23.152344 17.828125 23.210938 18.082031 C 23.269531 18.335938 23.539062 18.691406 23.800781 18.738281 C 24.058594 18.785156 23.953125 18.320312 23.8125 18.214844 C 23.671875 18.109375 23.378906 17.792969 23.511719 17.503906 C 23.644531 17.214844 23.726562 17.042969 23.558594 16.914062 C 23.390625 16.789062 23.773438 16.753906 23.613281 16.519531 C 23.453125 16.285156 23.15625 15.925781 23.730469 15.753906 C 24.304688 15.578125 24.4375 15.113281 24.144531 15.113281 C 23.851562 15.113281 24.0625 14.632812 24.410156 14.472656 C 24.757812 14.3125 24.4375 14.324219 24.410156 13.910156 C 24.382812 13.496094 24.105469 13.695312 23.992188 13.460938 C 23.878906 13.226562 23.84375 13.050781 23.632812 13.273438 C 23.417969 13.492188 23.117188 13.539062 22.917969 13.566406 C 22.71875 13.59375 22.535156 13.78125 22.421875 13.9375 C 22.308594 14.089844 22.082031 14.277344 21.914062 14.546875 C 21.75 14.8125 21.789062 14.992188 21.683594 15.152344 C 21.574219 15.316406 21.527344 15.929688 21.527344 16.132812 C 21.527344 16.332031 21.59375 16.566406 21.65625 16.65625 L 21.667969 17.304688 C 21.667969 17.304688 21.394531 17.144531 21.339844 16.957031 C 21.289062 16.769531 21.195312 16.425781 21.292969 16.050781 C 21.394531 15.675781 21.40625 15.523438 21.292969 15.367188 C 21.179688 15.214844 21.148438 14.847656 21.3125 14.625 C 21.480469 14.40625 21.828125 14.230469 22.097656 13.96875 C 22.363281 13.707031 22.53125 13.574219 22.5625 13.304688 C 22.5625 13.304688 23.203125 12.8125 24.375 12.347656 C 24.375 12.347656 25.753906 11.847656 26.9375 11.820312 C 26.9375 11.820312 26.351562 12.074219 26.394531 12.171875 C 26.433594 12.269531 26.589844 12.347656 26.820312 12.347656 C 27.050781 12.347656 27.527344 12.328125 27.539062 12.398438 C 27.546875 12.46875 27.652344 12.90625 27.917969 12.839844 C 28.179688 12.773438 28.308594 12.6875 28.308594 12.519531 C 28.308594 12.351562 28.289062 12.066406 28.421875 12.066406 C 28.523438 12.066406 28.652344 12.144531 28.773438 12.183594 C 28.972656 12.726562 29.167969 13.304688 29.359375 13.925781 C 29.140625 14.019531 28.902344 14.125 28.652344 14.246094 C 28.503906 14.253906 28.375 14.285156 28.347656 14.394531 C 27.476562 14.835938 26.5 15.425781 25.621094 16.140625 C 25.351562 16.09375 24.867188 16.09375 24.640625 16.1875 C 24.378906 16.292969 24.328125 16.386719 24.265625 16.539062 C 24.207031 16.695312 24.097656 16.96875 23.980469 17.128906 C 23.859375 17.289062 23.699219 17.464844 23.886719 17.914062 C 24.074219 18.363281 24.367188 18.570312 24.539062 18.535156 C 24.714844 18.503906 25.019531 18.460938 25.160156 18.347656 C 25.300781 18.234375 25.355469 18.085938 25.394531 17.964844 C 25.433594 17.847656 25.667969 17.664062 25.949219 17.652344 C 26.230469 17.636719 26.191406 17.710938 26.101562 17.988281 C 26.015625 18.261719 25.890625 18.429688 25.777344 18.582031 C 25.660156 18.738281 25.382812 19.234375 25.75 19.140625 C 26.117188 19.042969 26.945312 18.824219 26.972656 19.125 C 26.996094 19.425781 26.957031 19.675781 26.925781 20.023438 C 26.890625 20.371094 26.835938 20.710938 27.160156 20.714844 C 27.488281 20.722656 27.65625 20.652344 27.84375 20.652344 C 28.03125 20.652344 28.238281 20.851562 28.363281 20.984375 C 28.363281 20.984375 28.410156 21.316406 28.210938 21.238281 C 28.007812 21.15625 28.027344 20.933594 27.832031 20.96875 C 27.640625 21.007812 27.636719 21.0625 27.515625 21.21875 C 27.394531 21.371094 27.34375 21.433594 27.148438 21.214844 C 26.949219 20.996094 26.816406 20.800781 26.457031 20.6875 C 26.097656 20.578125 26.0625 20.566406 26.070312 20.222656 C 26.074219 19.882812 26.136719 19.707031 25.789062 19.6875 C 25.441406 19.667969 24.773438 19.667969 24.605469 19.414062 C 24.441406 19.160156 24.441406 19.070312 24.074219 19.070312 C 23.707031 19.070312 23.398438 19.042969 23.257812 18.824219 C 23.117188 18.601562 22.898438 18.5625 22.675781 18.5625 C 22.457031 18.5625 22.277344 18.414062 22.421875 18.199219 C 22.570312 17.988281 22.5625 17.785156 22.402344 17.417969 C 22.242188 17.050781 22.15625 16.566406 22.128906 15.871094 " fill-opacity="1" fill-rule="evenodd"/><path fill="#8cd02f" d="M 27.644531 17.8125 C 27.644531 17.8125 27.398438 17.773438 27.042969 17.820312 C 26.691406 17.867188 26.769531 17.753906 26.835938 17.617188 C 26.902344 17.484375 27.351562 17.308594 27.90625 17.492188 C 28.460938 17.671875 29.226562 18.066406 29.15625 18.316406 C 29.082031 18.5625 28.648438 18.34375 28.394531 18.335938 C 28.140625 18.328125 28.09375 18.234375 28 18.082031 C 27.90625 17.925781 27.773438 17.832031 27.644531 17.8125 " fill-opacity="1" fill-rule="evenodd"/><path fill="#8cd02f" d="M 29.414062 18.8125 C 29.414062 18.8125 29.570312 18.929688 29.75 18.917969 C 29.929688 18.90625 29.96875 18.777344 30.148438 18.796875 C 30.328125 18.816406 30.625 19 30.65625 18.898438 C 30.691406 18.796875 30.617188 18.609375 30.46875 18.484375 C 30.324219 18.355469 30.089844 18.1875 29.941406 18.261719 C 29.796875 18.335938 29.269531 18.691406 29.414062 18.8125 " fill-opacity="1" fill-rule="evenodd"/><path fill="#8cd02f" d="M 30.003906 30.578125 C 30.003906 30.578125 29.109375 30.683594 29.46875 30.109375 C 29.832031 29.535156 30.164062 29.507812 30.21875 28.855469 C 30.269531 28.203125 30.671875 28.015625 30.871094 27.707031 C 31.070312 27.402344 30.882812 27.066406 30.363281 26.828125 C 29.84375 26.585938 30.230469 26.308594 29.550781 26.265625 C 28.867188 26.226562 28.710938 26.011719 28.496094 25.597656 C 28.28125 25.1875 28.425781 24.929688 28.234375 24.691406 C 28.074219 24.492188 28.0625 23.917969 27.777344 23.859375 C 27.707031 23.84375 27.597656 23.886719 27.523438 23.851562 C 27.136719 23.679688 27.414062 23.378906 27.652344 22.929688 C 27.890625 22.480469 28.042969 22.488281 28.285156 22.507812 C 28.523438 22.527344 28.285156 21.863281 28.226562 21.429688 C 28.199219 21.242188 28.207031 20.796875 28.335938 20.917969 C 28.511719 21.089844 28.542969 21.046875 28.941406 20.503906 C 29.070312 20.328125 29.9375 20.011719 30.125 20.15625 C 30.308594 20.300781 30.65625 20.71875 31.191406 20.671875 C 31.332031 20.660156 31.449219 20.589844 31.609375 20.53125 C 31.769531 20.476562 31.917969 20.398438 32.019531 20.664062 C 32.121094 20.933594 32.519531 21.035156 32.652344 21.1875 C 32.789062 21.339844 32.847656 21.554688 33.363281 21.636719 C 33.875 21.71875 34.21875 21.832031 34.21875 22.171875 C 34.21875 22.511719 34.101562 22.921875 34.539062 23.015625 C 34.972656 23.109375 35.09375 23.121094 35.164062 23.324219 C 35.238281 23.523438 35.464844 23.496094 35.691406 23.519531 C 35.917969 23.539062 35.925781 23.605469 36 23.707031 C 36.074219 23.804688 36.3125 23.792969 36.3125 24.035156 C 36.3125 24.273438 36.160156 24.824219 35.878906 25.183594 C 35.597656 25.546875 35.324219 26.003906 35.050781 26.464844 C 34.945312 26.640625 34.890625 26.824219 34.832031 26.988281 C 34.65625 25.816406 34.269531 24.253906 33.601562 22.835938 C 33.003906 25.246094 32.5 27.476562 31.6875 29.722656 C 31.671875 29.726562 31.65625 29.726562 31.640625 29.726562 C 31.40625 29.71875 31.304688 29.652344 31.285156 29.792969 C 31.265625 29.933594 31.292969 30.066406 30.945312 30.09375 C 30.597656 30.121094 30.214844 30.402344 30.003906 30.578125 " fill-opacity="1" fill-rule="evenodd"/><path fill="#53a037" d="M 33.871094 23.449219 C 34.027344 23.273438 34.179688 23.09375 34.324219 22.914062 C 34.371094 22.960938 34.441406 22.996094 34.539062 23.015625 C 34.972656 23.109375 35.09375 23.121094 35.164062 23.324219 C 35.238281 23.523438 35.464844 23.496094 35.691406 23.519531 C 35.917969 23.539062 35.925781 23.605469 36 23.707031 C 36.074219 23.804688 36.3125 23.792969 36.3125 24.035156 C 36.3125 24.273438 36.160156 24.824219 35.878906 25.183594 C 35.597656 25.546875 35.324219 26.003906 35.050781 26.464844 C 34.945312 26.640625 34.890625 26.824219 34.832031 26.988281 C 34.679688 25.984375 34.375 24.691406 33.871094 23.449219 Z M 30.003906 30.578125 C 30.003906 30.578125 29.109375 30.683594 29.46875 30.109375 C 29.832031 29.535156 30.164062 29.507812 30.21875 28.855469 C 30.269531 28.203125 30.671875 28.015625 30.871094 27.707031 C 31.070312 27.402344 30.882812 27.066406 30.363281 26.828125 C 29.921875 26.621094 30.136719 26.386719 29.789062 26.300781 C 31.105469 25.769531 32.296875 24.992188 33.308594 24.023438 C 32.828125 25.988281 32.363281 27.851562 31.6875 29.722656 C 31.671875 29.726562 31.65625 29.726562 31.640625 29.726562 C 31.40625 29.71875 31.304688 29.652344 31.285156 29.792969 C 31.265625 29.933594 31.292969 30.066406 30.945312 30.09375 C 30.597656 30.121094 30.214844 30.402344 30.003906 30.578125 " fill-opacity="1" fill-rule="evenodd"/><path fill="#ffffff" d="M 36.203125 16.546875 L 36.222656 16.582031 L 36.203125 16.550781 Z M 27.765625 11.691406 C 28.046875 11.691406 28.324219 11.703125 28.597656 11.726562 C 28.679688 11.929688 28.757812 12.140625 28.835938 12.359375 C 28.582031 12.339844 28.324219 12.328125 28.0625 12.328125 C 24.378906 12.328125 21.164062 14.332031 19.441406 17.308594 C 19.371094 17.113281 19.304688 16.914062 19.238281 16.710938 C 20.902344 13.71875 24.097656 11.691406 27.765625 11.691406 " fill-opacity="1" fill-rule="evenodd"/><path fill="#ffffff" d="M 31.402344 30.484375 C 30.277344 30.9375 29.050781 31.183594 27.765625 31.183594 C 24.085938 31.183594 20.878906 29.144531 19.222656 26.132812 C 20.933594 28.933594 24.019531 30.804688 27.546875 30.804688 C 29 30.804688 30.378906 30.484375 31.617188 29.914062 C 31.546875 30.105469 31.476562 30.292969 31.402344 30.484375 Z M 36.203125 16.546875 C 37.039062 17.984375 37.515625 19.65625 37.515625 21.4375 C 37.515625 23.578125 36.824219 25.558594 35.652344 27.167969 C 35.476562 27.179688 35.300781 27.1875 35.117188 27.195312 C 36.480469 25.519531 37.296875 23.382812 37.296875 21.054688 C 37.296875 19.4375 36.898438 17.90625 36.199219 16.5625 L 36.203125 16.546875 " fill-opacity="1" fill-rule="evenodd"/><g clip-path="url(#1062610814)"><path fill="#ffffff" d="M 33.601562 22.835938 C 32.722656 26.394531 32.039062 29.546875 30.285156 32.957031 C 33.1875 34.839844 35.625 37.203125 38.054688 40.21875 C 37.949219 38.679688 37.746094 37.804688 37.164062 35.945312 C 38.703125 35.554688 41.210938 34.992188 42.828125 33.152344 C 42.753906 31.269531 42.550781 29.652344 45.621094 22.738281 C 44.640625 24.589844 42.382812 26.929688 34.863281 27.207031 C 34.703125 26.011719 34.3125 24.339844 33.601562 22.835938 " fill-opacity="1" fill-rule="evenodd"/></g><g clip-path="url(#782f9a6c33)"><path fill="#66c430" d="M 31.265625 32.820312 C 34.304688 34.863281 36.457031 37.222656 38.085938 40.214844 C 37.980469 38.675781 37.777344 37.800781 37.191406 35.941406 C 38.394531 35.640625 40.222656 35.210938 41.722656 34.167969 C 41.988281 32.054688 41.390625 32.382812 41.703125 30.433594 C 42.066406 28.183594 42.734375 28.15625 43.222656 26.148438 C 41.429688 27.089844 38.839844 27.867188 34.402344 28.09375 C 34.292969 27.253906 34.152344 25.953125 33.78125 24.867188 C 33.210938 27.804688 31.9375 31.511719 31.265625 32.820312 " fill-opacity="1" fill-rule="evenodd"/></g><g clip-path="url(#eda43475ea)"><path fill="#ffffff" d="M 25.464844 16.273438 C 29.128906 16.203125 32.355469 16.046875 36.101562 16.855469 C 37.167969 13.566406 38.824219 10.601562 41.105469 7.476562 C 39.648438 7.972656 38.855469 8.398438 37.207031 9.441406 C 36.433594 8.054688 35.238281 5.78125 33.042969 4.691406 C 31.242188 5.253906 29.734375 5.867188 22.257812 4.691406 C 24.300781 5.160156 27.144531 6.734375 29.359375 13.925781 C 28.25 14.390625 26.734375 15.199219 25.464844 16.273438 " fill-opacity="1" fill-rule="evenodd"/></g><g clip-path="url(#43d884d36b)"><path fill="#ffffff" d="M 23.988281 26.011719 C 22.09375 22.875 20.34375 20.160156 19.171875 16.511719 C 15.789062 17.230469 12.394531 17.285156 8.542969 16.867188 C 9.703125 17.882812 10.46875 18.355469 12.195312 19.257812 C 11.382812 20.625 10.007812 22.796875 10.164062 25.238281 C 11.550781 26.519531 12.835938 27.519531 15.554688 34.578125 C 14.941406 32.574219 14.882812 29.328125 20.003906 23.8125 C 20.960938 24.542969 22.417969 25.449219 23.988281 26.011719 " fill-opacity="1" fill-rule="evenodd"/></g><g clip-path="url(#76700dc28f)"><path fill="#66c430" d="M 18.59375 17.285156 C 15 17.992188 11.808594 17.84375 8.542969 16.878906 C 9.703125 17.894531 10.46875 18.367188 12.195312 19.269531 C 11.558594 20.335938 10.570312 21.929688 10.25 23.726562 C 11.554688 25.410156 11.742188 24.753906 12.902344 26.355469 C 14.238281 28.199219 13.785156 28.691406 14.859375 30.457031 C 15.460938 28.523438 16.742188 26.144531 19.71875 22.847656 C 20.390625 23.363281 21.410156 24.183594 22.441406 24.691406 C 20.765625 22.210938 19.046875 18.6875 18.59375 17.285156 " fill-opacity="1" fill-rule="evenodd"/></g><path fill="#66c430" d="M 35.726562 15.976562 C 36.914062 12.507812 38.636719 9.820312 41.105469 7.476562 C 39.648438 7.972656 38.855469 8.398438 37.207031 9.441406 C 36.605469 8.359375 35.714844 6.707031 34.320312 5.527344 C 32.210938 5.816406 32.6875 6.308594 30.71875 6.511719 C 28.449219 6.746094 28.25 6.105469 26.183594 6.15625 C 27.5625 7.644531 28.980469 9.941406 30.347656 14.167969 C 29.566406 14.492188 28.34375 14.960938 27.390625 15.601562 C 30.378906 15.390625 34.289062 15.664062 35.726562 15.976562 " fill-opacity="1" fill-rule="evenodd"/><path fill="#0d0d0d" d="M 31.308594 30.71875 C 30.195312 31.148438 28.988281 31.386719 27.726562 31.386719 C 23.640625 31.386719 20.152344 28.910156 18.636719 25.378906 C 18.710938 25.285156 18.789062 25.191406 18.871094 25.097656 C 20.320312 28.5625 23.757812 31.027344 27.726562 31.027344 C 29.0625 31.027344 30.335938 30.746094 31.496094 30.246094 C 31.433594 30.402344 31.371094 30.5625 31.308594 30.71875 Z M 36.273438 16.34375 C 37.179688 17.824219 37.703125 19.566406 37.703125 21.4375 C 37.703125 23.5625 37.027344 25.535156 35.882812 27.152344 C 35.71875 27.164062 35.550781 27.171875 35.382812 27.183594 C 36.59375 25.578125 37.316406 23.585938 37.316406 21.4375 C 37.316406 19.765625 36.878906 18.191406 36.113281 16.816406 C 36.164062 16.65625 36.21875 16.5 36.273438 16.34375 Z M 27.726562 11.597656 C 28.007812 11.597656 28.285156 11.609375 28.5625 11.632812 C 28.59375 11.71875 28.628906 11.808594 28.664062 11.898438 C 28.355469 11.867188 28.042969 11.851562 27.726562 11.851562 C 24.105469 11.851562 20.929688 13.898438 19.296875 16.890625 C 19.253906 16.765625 19.214844 16.640625 19.171875 16.511719 L 19.132812 16.519531 C 20.835938 13.566406 24.039062 11.597656 27.726562 11.597656 " fill-opacity="1" fill-rule="nonzero"/><path fill="#0d0d0d" d="M 28.179688 21.050781 C 28.417969 21.335938 28.371094 21.976562 28.4375 22.394531 C 28.488281 22.71875 28.316406 22.703125 28.144531 22.605469 C 27.988281 22.511719 27.890625 22.734375 27.820312 22.832031 C 26.957031 24.003906 27.828125 23.5625 27.757812 23.875 C 27.722656 24.046875 27.085938 24.066406 27.316406 24.328125 L 27.285156 24.304688 C 28.726562 25.445312 27.238281 25.703125 29.210938 26.875 C 30.269531 27.507812 29.789062 28.359375 29.226562 29.261719 C 29.148438 29.523438 29.167969 29.804688 29.074219 29.984375 C 28.960938 30.199219 28.789062 30.304688 28.644531 30.515625 C 28.546875 30.660156 28.425781 30.933594 28.304688 31.101562 C 28.285156 31.128906 28.023438 31.210938 28.007812 31.230469 C 28.074219 31.09375 28.441406 30.414062 28.472656 30.375 C 28.695312 30.117188 28.800781 30.140625 28.875 30.011719 C 29.070312 29.660156 28.808594 29.492188 29.039062 29.082031 C 29.28125 28.65625 29.367188 28.488281 29.460938 28.214844 C 29.644531 27.664062 29.582031 27.367188 29.40625 27.207031 C 29.027344 26.859375 28.113281 26.9375 27.808594 25.445312 C 27.625 24.558594 26.503906 24.285156 27.34375 23.867188 C 27.035156 23.507812 27.46875 23.273438 27.636719 22.765625 C 27.875 22.050781 28.304688 22.609375 28.277344 22.355469 C 28.222656 21.863281 28.203125 21.535156 28.070312 21.269531 C 28.003906 21.128906 27.726562 20.898438 27.636719 21.160156 C 27.367188 21.933594 26.945312 20.917969 26.5625 20.828125 C 25.15625 20.488281 26.78125 19.769531 25.367188 19.742188 C 24.132812 19.71875 24.679688 19.195312 24.226562 19.207031 C 22.921875 19.242188 23.355469 18.863281 23.039062 18.792969 C 21.59375 18.484375 22.585938 18.230469 22.339844 17.601562 C 21.941406 16.574219 22.078125 15.851562 21.90625 15.789062 C 21.71875 16.023438 21.90625 16.890625 21.789062 17.359375 C 21.707031 17.6875 21.546875 17.414062 21.417969 17.292969 C 20.734375 16.664062 21.46875 15.753906 21.261719 15.511719 C 20.421875 14.539062 22.382812 14.078125 22.519531 13.230469 C 22.523438 13.191406 22.640625 13.09375 22.636719 13.050781 C 22.984375 13.929688 20.699219 14.566406 21.394531 15.402344 C 21.695312 15.757812 20.996094 16.347656 21.597656 17.164062 C 21.574219 16.488281 21.589844 15.027344 22.125 15.609375 C 22.449219 15.960938 22.101562 16.535156 22.609375 17.566406 C 23.035156 18.441406 21.738281 18.3125 23.097656 18.546875 C 23.5625 18.625 23.027344 18.949219 24.246094 19.023438 C 24.941406 19.066406 24.292969 19.480469 25.492188 19.535156 C 27.03125 19.605469 25.476562 20.347656 26.636719 20.683594 C 27.335938 20.886719 27.199219 21.777344 27.617188 20.921875 C 27.6875 20.78125 28.085938 20.9375 28.179688 21.050781 " fill-opacity="1" fill-rule="evenodd"/><path fill="#0d0d0d" d="M 26.011719 16.265625 L 25.828125 16.269531 C 25.933594 16.296875 25.996094 16.3125 26.011719 16.265625 Z M 28.800781 12.265625 C 28.53125 12.148438 28.320312 11.894531 28.398438 12.523438 C 28.441406 12.839844 27.542969 13.335938 27.460938 12.4375 C 27.449219 12.378906 26.898438 12.410156 26.578125 12.351562 C 26.382812 12.316406 26.292969 12.234375 26.308594 12.164062 C 26.359375 11.925781 26.976562 11.757812 27.425781 11.808594 C 26.894531 11.933594 26.75 12.003906 26.597656 12.074219 C 26.445312 12.148438 26.332031 12.195312 26.601562 12.261719 C 26.945312 12.347656 27.617188 12.214844 27.644531 12.367188 C 27.757812 13.019531 28.207031 12.699219 28.230469 12.503906 C 28.265625 12.253906 28.085938 11.871094 28.605469 12.027344 C 28.648438 12.039062 28.6875 12.054688 28.730469 12.070312 C 28.753906 12.136719 28.777344 12.199219 28.800781 12.265625 Z M 28.246094 14.445312 C 28.246094 14.183594 28.558594 14.191406 28.886719 14.136719 C 28.679688 14.230469 28.464844 14.332031 28.246094 14.445312 Z M 27.253906 16.238281 L 27.039062 16.242188 C 27.121094 17.238281 28.03125 17.609375 27.652344 16.230469 L 27.503906 16.230469 C 27.578125 16.445312 27.636719 16.683594 27.550781 16.941406 C 27.273438 16.78125 27.265625 16.59375 27.257812 16.28125 C 27.257812 16.265625 27.257812 16.25 27.253906 16.238281 Z M 25.824219 15.984375 C 25.925781 15.902344 26.035156 15.820312 26.140625 15.742188 C 26.011719 15.71875 25.894531 15.75 25.84375 15.871094 C 25.828125 15.910156 25.824219 15.949219 25.824219 15.984375 Z M 31.644531 29.84375 C 31.546875 29.820312 31.460938 29.773438 31.378906 29.78125 C 31.355469 30.382812 30.976562 29.898438 30.140625 30.636719 C 29.933594 30.816406 28.824219 31.125 28.679688 31.1875 C 28.914062 31.046875 29.253906 30.820312 29.484375 30.6875 C 29.5625 30.574219 29.851562 30.597656 30.054688 30.40625 C 30.601562 29.886719 31.191406 30.03125 31.183594 29.828125 C 31.082031 29.492188 31.457031 29.617188 31.636719 29.636719 C 31.65625 29.640625 31.6875 29.628906 31.730469 29.609375 C 31.699219 29.6875 31.671875 29.765625 31.644531 29.84375 Z M 28.046875 20.585938 C 28.34375 20.726562 28.363281 21.1875 28.71875 20.71875 C 28.773438 20.644531 28.820312 20.523438 28.925781 20.40625 C 29.082031 20.234375 30 19.964844 30.101562 20.015625 C 30.226562 20.085938 30.226562 20.097656 30.429688 20.308594 C 31.503906 21.074219 31.683594 19.820312 32.101562 20.617188 C 32.269531 20.945312 32.148438 20.800781 32.46875 20.949219 C 32.925781 21.164062 32.453125 21.382812 33.707031 21.589844 C 34.894531 21.78125 33.785156 22.792969 34.75 22.953125 C 34.984375 22.992188 35.136719 23.082031 35.171875 23.144531 C 35.332031 23.457031 35.375 23.320312 35.75 23.398438 C 35.816406 23.410156 35.882812 23.429688 35.945312 23.453125 C 36.058594 23.496094 35.984375 23.597656 36.066406 23.679688 C 36.152344 23.761719 36.382812 23.722656 36.414062 23.847656 C 36.433594 23.933594 36.457031 24.070312 36.433594 24.234375 C 36.234375 25.453125 35.425781 25.558594 35.027344 26.824219 C 34.976562 26.976562 34.933594 27.101562 34.890625 27.203125 L 34.863281 27.207031 C 34.84375 27.070312 34.824219 26.929688 34.796875 26.78125 L 34.808594 26.761719 C 35.261719 25.75 36.300781 24.769531 36.152344 23.921875 C 35.980469 23.890625 35.917969 23.835938 35.851562 23.691406 C 35.652344 23.632812 35.617188 23.617188 35.507812 23.609375 C 34.820312 23.539062 35.3125 23.226562 34.828125 23.207031 C 33.34375 23.140625 34.726562 22 33.730469 21.824219 C 32.253906 21.558594 33.167969 21.472656 32.320312 21.113281 C 31.949219 20.960938 31.925781 20.824219 31.90625 20.730469 C 31.828125 20.410156 31.699219 20.613281 31.617188 20.65625 C 30.738281 21.132812 30.300781 20.269531 30.039062 20.214844 C 29.859375 20.175781 29.144531 20.445312 29.054688 20.539062 C 28.839844 20.765625 28.671875 21.09375 28.597656 21.171875 C 28.488281 21.285156 28.398438 21.054688 28.140625 20.863281 C 27.804688 20.613281 27.710938 20.773438 27.335938 20.792969 C 26.96875 20.808594 26.65625 20.65625 26.886719 19.683594 C 27.242188 18.199219 24.890625 20.015625 25.601562 18.742188 C 25.664062 18.628906 25.898438 18.296875 26 18.007812 C 26.070312 17.804688 26.117188 17.710938 25.847656 17.738281 C 25.589844 17.761719 25.4375 17.980469 25.378906 18.246094 C 25.34375 18.40625 25.128906 18.507812 24.914062 18.53125 C 24.5625 18.574219 24.53125 18.777344 24.304688 18.609375 C 23.910156 18.308594 23.867188 18.105469 23.785156 17.84375 C 23.539062 17.054688 24.046875 17.179688 24.171875 16.476562 C 24.257812 15.972656 24.972656 15.84375 25.507812 16.039062 C 25.582031 16.066406 25.636719 16.085938 25.679688 16.09375 C 25.636719 16.132812 25.589844 16.167969 25.546875 16.207031 C 25.105469 16.148438 24.480469 16.136719 24.410156 16.515625 C 24.269531 17.265625 23.453125 17.527344 24.199219 18.207031 C 24.59375 18.566406 24.515625 18.457031 24.796875 18.355469 C 25.769531 17.996094 24.917969 17.988281 25.5 17.722656 C 26.847656 17.105469 26.167969 18.101562 25.738281 18.757812 C 25.5625 19.027344 25.625 19.089844 25.921875 19.023438 C 26.625 18.863281 27.308594 18.644531 27.09375 19.609375 C 26.984375 20.097656 26.878906 20.457031 26.992188 20.582031 C 27.234375 20.855469 27.707031 20.421875 28.046875 20.585938 " fill-opacity="1" fill-rule="evenodd"/><path fill="#0d0d0d" d="M 26.980469 17.765625 C 27.222656 17.761719 27.648438 17.449219 28.023438 17.984375 C 28.164062 18.183594 28.125 18.25 28.410156 18.265625 C 28.578125 18.277344 29.269531 18.414062 29.03125 18.148438 C 28.785156 17.871094 27.519531 17.257812 26.945312 17.589844 C 26.851562 17.640625 26.777344 17.769531 26.980469 17.765625 Z M 26.839844 17.523438 C 27.304688 16.964844 28.660156 17.609375 29.136719 18.089844 C 29.464844 18.417969 29.316406 18.609375 28.128906 18.355469 C 27.710938 18.269531 28.320312 17.734375 26.890625 17.882812 C 26.808594 17.890625 26.726562 17.863281 26.71875 17.800781 C 26.707031 17.71875 26.789062 17.585938 26.839844 17.523438 " fill-opacity="1" fill-rule="evenodd"/><path fill="#0d0d0d" d="M 29.902344 18.820312 C 30.09375 18.625 30.355469 18.75 30.503906 18.804688 C 30.609375 18.847656 30.660156 18.832031 30.570312 18.710938 C 30.089844 18.082031 29.785156 18.390625 29.515625 18.632812 C 29.375 18.761719 29.433594 18.78125 29.515625 18.804688 C 29.667969 18.851562 29.828125 18.890625 29.902344 18.820312 Z M 29.910156 18.964844 C 29.773438 19.050781 29.507812 18.964844 29.398438 18.894531 C 29.21875 18.769531 29.367188 18.601562 29.621094 18.347656 C 30.332031 17.640625 31.257812 19.367188 30.339844 18.949219 C 30.109375 18.839844 30.089844 18.847656 29.910156 18.964844 " fill-opacity="1" fill-rule="evenodd"/><path fill="#0d0d0d" d="M 28.144531 18.609375 C 28.144531 18.609375 28.515625 18.558594 28.714844 18.726562 C 28.910156 18.898438 28.460938 18.882812 28.351562 18.824219 C 28.242188 18.769531 27.96875 18.628906 28.144531 18.609375 " fill-opacity="1" fill-rule="evenodd"/><path fill="#0d0d0d" d="M 31.132812 18.667969 C 31.132812 18.667969 30.835938 18.542969 30.835938 18.679688 C 30.835938 18.8125 31 18.84375 31.15625 18.808594 C 31.316406 18.769531 31.25 18.703125 31.132812 18.667969 " fill-opacity="1" fill-rule="evenodd"/><path fill="#0d0d0d" d="M 31.964844 19.152344 C 31.964844 19.152344 31.894531 19.246094 31.988281 19.257812 C 32.082031 19.265625 32.046875 19 31.964844 19.152344 " fill-opacity="1" fill-rule="evenodd"/><path fill="#0d0d0d" d="M 32.039062 19.355469 C 32.039062 19.355469 32.019531 19.480469 32.109375 19.472656 C 32.195312 19.46875 32.039062 19.199219 32.039062 19.355469 " fill-opacity="1" fill-rule="evenodd"/><path fill="#0d0d0d" d="M 32.128906 19.625 C 32.128906 19.625 32.171875 19.714844 32.207031 19.664062 C 32.242188 19.613281 32.125 19.433594 32.128906 19.625 " fill-opacity="1" fill-rule="evenodd"/><path fill="#0d0d0d" d="M 32.164062 19.820312 C 32.164062 19.820312 32.230469 19.820312 32.230469 19.761719 C 32.230469 19.707031 32.179688 19.726562 32.164062 19.765625 C 32.148438 19.808594 32.136719 19.828125 32.164062 19.820312 " fill-opacity="1" fill-rule="evenodd"/><path fill="#0d0d0d" d="M 32.28125 20.5 C 32.28125 20.5 32.167969 20.503906 32.1875 20.609375 C 32.207031 20.710938 32.21875 20.777344 32.335938 20.722656 C 32.457031 20.664062 32.429688 20.453125 32.28125 20.5 " fill-opacity="1" fill-rule="evenodd"/><path fill="#0d0d0d" d="M 24.839844 23.21875 C 24.839844 23.21875 24.945312 23.085938 24.890625 23.015625 C 24.839844 22.949219 24.785156 23 24.769531 23.03125 C 24.753906 23.066406 24.769531 23.328125 24.839844 23.21875 " fill-opacity="1" fill-rule="evenodd"/><path fill="#0d0d0d" d="M 17.511719 26.976562 C 18.289062 27.546875 19.328125 27.703125 20.292969 27.765625 C 20.363281 27.851562 20.441406 27.9375 20.523438 28.027344 C 19.257812 27.945312 18.132812 27.730469 17.363281 27.257812 C 17.425781 27.109375 17.453125 27.0625 17.511719 26.976562 " fill-opacity="1" fill-rule="nonzero"/><path fill="#0d0d0d" d="M 15.710938 34.449219 C 15.851562 34.816406 17.28125 36.761719 25.953125 36.152344 C 24.792969 34.886719 23.617188 33.082031 23.152344 31.496094 C 23.3125 31.109375 23.515625 30.738281 23.746094 30.378906 C 23.839844 30.421875 23.9375 30.460938 24.03125 30.5 C 23.84375 30.820312 23.671875 31.152344 23.527344 31.511719 C 24.042969 33.4375 25.226562 34.902344 26.464844 36.421875 C 25.5625 36.488281 17.132812 37.101562 15.546875 34.878906 C 15.492188 34.800781 15.4375 34.722656 15.394531 34.636719 C 15.378906 34.59375 15.367188 34.554688 15.351562 34.511719 C 15.363281 34.160156 15.402344 33.722656 15.433594 33.386719 C 15.503906 33.773438 15.59375 34.132812 15.710938 34.449219 " fill-opacity="1" fill-rule="nonzero"/><path fill="#0d0d0d" d="M 25.675781 11.9375 C 26.339844 10.996094 27.042969 10.242188 27.78125 9.871094 C 27.863281 9.980469 27.875 10.183594 27.859375 10.191406 C 27.101562 10.523438 26.515625 11.175781 26.023438 11.863281 C 25.914062 11.882812 25.796875 11.90625 25.675781 11.9375 " fill-opacity="1" fill-rule="nonzero"/><g clip-path="url(#92c66d119c)"><path fill="#0d0d0d" d="M 22.292969 4.890625 C 21.90625 4.828125 19.503906 5.09375 15.695312 12.90625 C 17.371094 12.535156 19.523438 12.417969 21.132812 12.808594 C 21.355469 13.097656 21.550781 13.414062 21.730469 13.746094 C 21.636719 13.8125 21.554688 13.878906 21.480469 13.9375 C 21.316406 13.660156 21.136719 13.390625 20.933594 13.125 C 19.003906 12.609375 17.140625 12.902344 15.210938 13.214844 C 15.601562 12.398438 19.285156 4.796875 22.003906 4.53125 C 22.097656 4.523438 22.195312 4.515625 22.289062 4.523438 C 22.511719 4.5625 22.738281 4.613281 22.96875 4.679688 C 22.96875 4.882812 23.992188 5.363281 22.972656 5.054688 C 22.738281 4.984375 22.511719 4.929688 22.292969 4.890625 " fill-opacity="1" fill-rule="nonzero"/></g><path fill="#0d0d0d" d="M 37.292969 23.652344 C 38.214844 24.671875 38.941406 25.695312 39.167969 26.632812 L 38.859375 26.714844 C 38.699219 25.695312 37.988281 24.792969 37.300781 24.039062 C 37.273438 24.003906 37.289062 23.703125 37.292969 23.652344 " fill-opacity="1" fill-rule="nonzero"/><path fill="#0d0d0d" d="M 45.421875 22.71875 C 45.582031 22.363281 45.945312 19.976562 39.386719 14.277344 C 39.308594 15.988281 38.863281 18.097656 38.070312 19.550781 C 37.839844 19.644531 37.605469 19.726562 37.359375 19.792969 C 37.34375 19.675781 37.328125 19.566406 37.3125 19.464844 C 37.480469 19.40625 37.648438 19.34375 37.816406 19.273438 C 38.8125 17.546875 39.011719 15.671875 39.210938 13.726562 C 39.898438 14.3125 46.289062 19.839844 45.84375 22.535156 C 45.828125 22.625 45.808594 22.722656 45.777344 22.8125 C 45.765625 22.835938 45.753906 22.863281 45.742188 22.886719 L 45.242188 23.089844 C 45.308594 22.972656 45.367188 22.835938 45.421875 22.71875 " fill-opacity="1" fill-rule="nonzero"/><g clip-path="url(#5343958393)"><path fill="#0d0d0d" d="M 33.535156 22.5 C 34.316406 23.847656 34.648438 25.355469 34.96875 27.027344 C 39.109375 26.730469 43.730469 26.238281 45.46875 22.660156 L 45.777344 22.808594 C 44.332031 25.863281 42.605469 30.1875 43.007812 33.21875 C 40.796875 35.136719 39.433594 35.667969 37.296875 36.039062 C 37.773438 37.304688 38.183594 38.867188 38.136719 40.507812 C 35.851562 37.671875 33.265625 35.0625 30.121094 32.992188 C 31.730469 29.828125 32.714844 26.167969 33.535156 22.5 Z M 33.617188 23.046875 C 32.734375 27.582031 31.761719 30.601562 30.476562 32.9375 C 32.398438 33.984375 35.210938 36.527344 37.921875 39.839844 C 37.84375 38.433594 37.382812 37.15625 36.902344 35.84375 C 39.085938 35.371094 41.355469 34.65625 42.765625 33.128906 C 42.550781 31.917969 42.351562 29.746094 45.105469 23.707031 C 43.164062 26.574219 38.152344 27.296875 34.710938 27.386719 C 34.527344 26.007812 34.160156 24.328125 33.617188 23.046875 " fill-opacity="1" fill-rule="nonzero"/></g><g clip-path="url(#e2cec48588)"><path fill="#0d0d0d" d="M 24.269531 26.199219 C 22.765625 25.800781 21.464844 24.972656 20.054688 24.011719 C 17.339844 27.152344 14.417969 30.765625 15.71875 34.527344 L 15.398438 34.640625 C 14.257812 31.457031 12.417969 27.179688 9.992188 25.320312 C 10.199219 22.402344 10.785156 21.0625 12.03125 19.289062 C 10.800781 18.730469 9.40625 17.914062 8.28125 16.722656 C 11.902344 17.113281 15.578125 17.128906 19.265625 16.371094 C 20.363281 19.746094 22.257812 23.027344 24.269531 26.199219 Z M 23.824219 25.875 C 21.242188 22.042969 19.792969 19.21875 19.050781 16.660156 C 16.953125 17.277344 13.164062 17.46875 8.90625 17.042969 C 9.953125 17.980469 11.183594 18.558594 12.453125 19.148438 C 11.242188 21.023438 10.144531 23.132812 10.222656 25.210938 C 11.238281 25.917969 12.910156 27.3125 15.238281 33.527344 C 14.582031 30.128906 17.613281 26.074219 19.984375 23.578125 C 21.089844 24.425781 22.535156 25.351562 23.824219 25.875 " fill-opacity="1" fill-rule="nonzero"/></g><g clip-path="url(#8b83c2535a)"><path fill="#0d0d0d" d="M 25.160156 16.425781 C 26.257812 15.320312 27.628906 14.609375 29.160156 13.871094 C 27.800781 9.949219 26.128906 5.613281 22.222656 4.859375 L 22.285156 4.523438 C 25.613281 5.128906 30.234375 5.675781 33.0625 4.503906 C 35.488281 6.144531 36.355469 7.320312 37.265625 9.285156 C 38.363281 8.5 39.769531 7.699219 41.367188 7.320312 C 39.214844 10.261719 37.367188 13.433594 36.175781 17.007812 C 32.703125 16.269531 28.914062 16.269531 25.160156 16.425781 Z M 25.664062 16.203125 C 30.273438 15.882812 33.445312 16.039062 36.03125 16.675781 C 36.550781 14.550781 38.277344 11.175781 40.777344 7.703125 C 39.4375 8.140625 38.324219 8.914062 37.179688 9.71875 C 36.15625 7.734375 34.878906 5.730469 33.039062 4.757812 C 31.921875 5.28125 29.875 6.035156 23.328125 4.941406 C 26.597656 6.070312 28.597656 10.726562 29.574219 14.023438 C 28.289062 14.558594 26.761719 15.347656 25.664062 16.203125 " fill-opacity="1" fill-rule="nonzero"/></g><path stroke-linecap="butt" transform="matrix(1.028477, 0, 0, 1.028477, 35.43179, 15.300656)" fill="none" stroke-linejoin="miter" d="M 25.817371 0.736951 C 26.140209 0.710364 26.288334 0.835701 26.25795 1.11676 C 26.235161 1.257289 26.231363 1.390222 26.238959 1.523155 C 26.250353 1.652291 26.261748 1.789022 26.273142 1.925753 C 26.280738 1.963734 26.280738 2.001715 26.273142 2.039696 C 26.261748 2.07008 26.254151 2.108061 26.242757 2.146042 C 25.410975 2.153638 24.579194 2.14984 23.747412 2.13085 C 22.919428 2.111859 22.087647 2.142244 21.259663 2.222004 C 21.278654 2.658784 21.274855 3.114555 21.252067 3.585518 C 21.22548 4.052683 21.240673 4.508454 21.28625 4.956629 C 21.453366 4.937638 21.620482 4.941436 21.7838 4.968023 C 21.950915 4.99461 22.118031 4.99461 22.285147 4.975619 C 22.402888 4.956629 22.520629 4.945235 22.634572 4.945235 C 22.752312 4.945235 22.870053 4.949033 22.987794 4.956629 C 23.242266 4.956629 23.500536 4.952831 23.755008 4.937638 C 24.017076 4.922446 24.271548 4.911052 24.526021 4.899657 C 24.655156 4.892061 24.780493 4.884465 24.902031 4.880667 C 25.02357 4.873071 25.148907 4.876869 25.274244 4.888263 C 25.498332 4.907254 25.60088 5.017398 25.58189 5.222495 C 25.570495 5.389611 25.570495 5.556727 25.574293 5.716247 C 25.578091 5.875767 25.585688 6.039084 25.597082 6.2062 C 25.597082 6.380913 25.517322 6.468269 25.3616 6.468269 C 25.224869 6.468269 25.08434 6.472067 24.94381 6.475865 C 24.803281 6.479663 24.662752 6.483461 24.526021 6.483461 C 24.263952 6.483461 24.001884 6.487259 23.743614 6.502451 C 23.485344 6.510048 23.223276 6.521442 22.957409 6.529038 C 22.858659 6.540432 22.759909 6.54423 22.65736 6.54423 C 22.554812 6.54423 22.448465 6.54423 22.342119 6.54423 L 21.259663 6.54423 C 21.217884 7.053174 21.210288 7.562119 21.240673 8.067265 C 21.271057 8.576209 21.297644 9.085153 21.316634 9.594097 C 21.373606 9.632078 21.438173 9.64727 21.506539 9.635876 C 21.574905 9.628279 21.64327 9.628279 21.711636 9.635876 C 21.867358 9.64727 22.023079 9.654866 22.178801 9.658664 C 22.334523 9.662462 22.486446 9.658664 22.634572 9.651068 C 22.832072 9.632078 23.021977 9.620683 23.204285 9.620683 C 23.390392 9.620683 23.576498 9.609289 23.762604 9.578904 C 23.872749 9.556116 23.986692 9.552318 24.108231 9.563712 C 24.229769 9.575106 24.351308 9.575106 24.469049 9.563712 C 24.712127 9.533327 24.955205 9.518135 25.198282 9.518135 C 25.445158 9.518135 25.688236 9.518135 25.931314 9.518135 C 26.079439 9.518135 26.227565 9.502943 26.371892 9.46876 C 26.520018 9.434577 26.671941 9.457365 26.827663 9.533327 L 26.827663 10.634773 C 26.850452 10.858861 26.751701 10.961409 26.53521 10.942419 C 26.292132 10.934822 26.045256 10.938621 25.798381 10.965207 C 25.555303 10.987996 25.308427 10.995592 25.053955 10.984198 C 24.742512 10.965207 24.42727 10.961409 24.108231 10.972803 C 23.789191 10.9804 23.47395 10.991794 23.162506 10.99939 C 22.759909 11.010784 22.357311 11.014582 21.947117 11.014582 C 21.533126 11.014582 21.122932 11.014582 20.712738 11.014582 C 20.674757 11.014582 20.579805 11.01838 20.427881 11.022179 C 20.275958 11.025977 20.105044 11.033573 19.915139 11.041169 C 19.725235 11.052563 19.542926 11.060159 19.372012 11.063958 C 19.201098 11.067756 19.079559 11.071554 18.9998 11.071554 C 18.813693 11.052563 18.631385 11.037371 18.449077 11.029775 C 18.270566 11.01838 18.080662 11.014582 17.886959 11.014582 C 17.818594 11.014582 17.712247 11.022179 17.56792 11.037371 C 17.42739 11.048765 17.355227 11.041169 17.355227 11.014582 C 17.378015 10.809485 17.385611 10.600591 17.378015 10.391696 C 17.374217 10.182801 17.362823 9.973906 17.343832 9.768809 C 17.313448 9.483952 17.313448 9.191499 17.343832 8.887652 C 17.362823 8.743325 17.370419 8.591401 17.362823 8.435679 C 17.359025 8.279958 17.355227 8.124236 17.355227 7.964716 C 17.355227 7.839379 17.359025 7.714042 17.362823 7.592503 C 17.370419 7.467166 17.362823 7.341829 17.343832 7.216492 C 17.332438 7.02279 17.321044 6.825289 17.305851 6.631587 C 17.294457 6.434086 17.286861 6.240383 17.286861 6.046681 C 17.286861 5.841584 17.283063 5.632689 17.279265 5.423794 C 17.271669 5.211101 17.271669 5.002206 17.271669 4.797109 C 17.279265 4.592012 17.286861 4.386915 17.294457 4.181818 C 17.298255 3.976722 17.305851 3.771625 17.313448 3.566528 C 17.332438 2.875276 17.332438 2.282773 17.313448 1.79282 C 17.294457 1.306664 17.279265 1.010413 17.271669 0.915461 C 17.290659 0.896471 17.313448 0.881278 17.343832 0.869884 C 17.374217 0.862288 17.393208 0.847095 17.404602 0.824307 C 17.469169 0.805316 17.526141 0.79772 17.56792 0.801518 C 17.613497 0.809115 17.670468 0.809115 17.738834 0.809115 C 18.198403 0.790124 18.657971 0.790124 19.121338 0.801518 C 19.588504 0.816711 20.048072 0.816711 20.511439 0.79772 C 20.678555 0.786326 20.841873 0.782528 21.008989 0.790124 C 21.176105 0.793922 21.335625 0.790124 21.491347 0.782528 C 21.726828 0.763537 21.966108 0.759739 22.201589 0.774932 C 22.440869 0.790124 22.680149 0.786326 22.91563 0.767336 C 23.139718 0.748345 23.367603 0.744547 23.603085 0.759739 C 23.838566 0.774932 24.074048 0.771134 24.305731 0.752143 C 24.533617 0.733153 24.761502 0.725557 24.993186 0.733153 C 25.232465 0.736951 25.464149 0.736951 25.69963 0.736951 Z M 33.348984 3.171527 C 33.386964 3.182921 33.424945 3.186719 33.459128 3.186719 C 33.493311 3.186719 33.531292 3.198113 33.569273 3.217104 C 33.762975 3.285469 33.960476 3.353835 34.154179 3.4222 C 34.351679 3.490566 34.537786 3.577922 34.712498 3.684269 C 35.016345 3.870375 35.274615 4.094462 35.491106 4.352733 C 35.703799 4.611003 35.851925 4.926244 35.931685 5.298457 C 35.939281 5.328842 35.943079 5.359226 35.943079 5.393409 C 35.943079 5.427592 35.943079 5.457977 35.943079 5.488361 C 35.954473 5.507352 35.958271 5.53014 35.950675 5.556727 C 35.946877 5.579516 35.943079 5.6099 35.943079 5.647881 C 35.700001 5.647881 35.456923 5.67067 35.217644 5.708651 C 34.978364 5.746632 34.731488 5.746632 34.477016 5.704853 C 34.439035 5.666872 34.416247 5.636487 34.404853 5.606102 C 34.336487 5.33264 34.214948 5.123745 34.036438 4.975619 C 33.861726 4.827494 33.649033 4.721147 33.394561 4.648984 C 33.189464 4.592012 32.988165 4.588214 32.79826 4.641387 C 32.608356 4.686964 32.429846 4.778119 32.266528 4.91485 C 31.913306 5.207303 31.696814 5.587112 31.620853 6.046681 C 31.590468 6.191008 31.560083 6.339134 31.533497 6.487259 C 31.503112 6.631587 31.476525 6.772116 31.457535 6.908847 C 31.419554 7.174713 31.423352 7.432983 31.472727 7.683657 C 31.522102 7.930533 31.579074 8.177409 31.651237 8.420487 C 31.696814 8.576209 31.772776 8.73193 31.875325 8.883854 C 31.977873 9.035777 32.107008 9.164913 32.266528 9.271259 C 32.551385 9.46876 32.862828 9.563712 33.204656 9.563712 C 33.516099 9.575106 33.804754 9.514337 34.066823 9.389 C 34.328891 9.259865 34.579565 9.104143 34.815046 8.918037 C 34.883412 8.861065 34.947979 8.804094 35.012547 8.743325 C 35.073316 8.686353 35.156874 8.636978 35.255625 8.595199 C 35.430337 8.71294 35.593655 8.849671 35.737982 9.005393 C 35.886108 9.161114 36.038031 9.30924 36.193753 9.445971 C 36.182359 9.476356 36.174762 9.499144 36.170964 9.518135 C 36.167166 9.537125 36.15957 9.552318 36.148176 9.563712 C 35.886108 9.80679 35.616443 10.042271 35.335385 10.266359 C 35.058124 10.490446 34.746681 10.672754 34.404853 10.809485 C 34.161775 10.908236 33.903505 10.976601 33.63384 11.014582 C 33.364176 11.052563 33.094511 11.09814 32.821049 11.147515 C 32.353884 11.234872 31.894315 11.231073 31.442342 11.139919 C 30.994168 11.044967 30.553589 10.915832 30.124405 10.748716 C 29.850943 10.64237 29.604067 10.50184 29.383778 10.327128 C 29.163488 10.152416 28.958392 9.954915 28.760891 9.738424 C 28.66214 9.624481 28.567188 9.510539 28.468438 9.396596 C 28.369688 9.282653 28.297524 9.145922 28.248149 8.993998 C 28.168389 8.678757 28.092427 8.363516 28.012667 8.048274 C 27.936705 7.729235 27.906321 7.402599 27.925311 7.068367 C 27.955696 6.718943 28.012667 6.377114 28.092427 6.039084 C 28.175985 5.701054 28.316514 5.374419 28.510217 5.062975 C 28.677333 4.800907 28.867237 4.557829 29.076132 4.33754 C 29.285027 4.117251 29.512913 3.912154 29.75599 3.726048 C 29.961087 3.58172 30.177578 3.467778 30.409262 3.38422 C 30.640945 3.300662 30.876427 3.239892 31.119505 3.201911 C 31.491718 3.122151 31.86393 3.076574 32.232345 3.068978 C 32.604558 3.057584 32.976771 3.095565 33.348984 3.171527 Z M 41.454108 3.156334 C 41.80733 3.106959 42.156754 3.08417 42.509977 3.08417 C 42.863199 3.08417 43.212623 3.118353 43.565846 3.186719 C 43.789933 3.2247 44.010222 3.281671 44.230511 3.353835 C 44.450801 3.429797 44.667292 3.513355 44.887581 3.612105 C 45.255996 3.767827 45.582631 3.976722 45.867488 4.234992 C 46.152345 4.493262 46.399221 4.793311 46.615712 5.138937 C 46.771433 5.382015 46.889174 5.640285 46.972732 5.913748 C 47.05629 6.18721 47.128454 6.464471 47.185425 6.749327 C 47.246195 7.04178 47.265185 7.334233 47.246195 7.626686 C 47.227204 7.922937 47.181627 8.211592 47.113262 8.496449 C 47.014511 8.906642 46.839799 9.271259 46.585327 9.594097 C 46.505567 9.692847 46.429605 9.791597 46.357442 9.894146 C 46.285278 9.996694 46.20172 10.087848 46.10297 10.167608 C 45.681382 10.555013 45.214217 10.824678 44.705273 10.9804 C 44.200127 11.128525 43.668394 11.219679 43.110075 11.250064 C 42.897382 11.250064 42.673294 11.253862 42.441611 11.265256 C 42.213726 11.272852 41.98584 11.269054 41.761753 11.250064 C 41.507281 11.227275 41.252809 11.200689 40.998337 11.166506 C 40.747663 11.136121 40.496989 11.067756 40.250113 10.972803 C 40.242517 10.972803 40.231123 10.969005 40.223526 10.965207 C 40.212132 10.957611 40.204536 10.957611 40.193142 10.957611 C 39.741169 10.851264 39.349966 10.668956 39.019532 10.418282 C 38.689098 10.160012 38.392847 9.856165 38.138375 9.502943 C 37.796547 9.028181 37.599046 8.496449 37.542075 7.907745 C 37.51169 7.596301 37.504094 7.284858 37.523084 6.977213 C 37.545873 6.669567 37.599046 6.36572 37.686402 6.061873 C 37.880105 5.4124 38.183952 4.880667 38.594146 4.462877 C 39.004339 4.041289 39.524678 3.72225 40.151363 3.509557 C 40.364056 3.429797 40.584345 3.361431 40.800836 3.296864 C 41.021125 3.232296 41.237616 3.186719 41.454108 3.156334 Z M 42.509977 4.709753 C 42.285889 4.690763 42.076994 4.747734 41.879494 4.873071 C 41.681993 4.998408 41.545262 5.17312 41.4693 5.397207 C 41.359155 5.701054 41.264203 6.004902 41.180645 6.308749 C 41.100885 6.612596 41.0705 6.924039 41.089491 7.246877 C 41.108481 7.501349 41.127472 7.759619 41.154058 8.017889 C 41.176847 8.276159 41.237616 8.53443 41.336367 8.788902 C 41.366751 8.864863 41.40853 8.944623 41.461704 9.028181 C 41.514877 9.111739 41.571848 9.187701 41.62882 9.256067 C 41.82632 9.499144 42.058004 9.643472 42.335264 9.681453 C 42.608727 9.719434 42.859401 9.620683 43.083488 9.385202 C 43.17844 9.301644 43.2582 9.199095 43.322768 9.088951 C 43.387335 8.975008 43.43671 8.853469 43.474691 8.728132 C 43.554451 8.47366 43.607625 8.219188 43.630413 7.960918 C 43.657 7.702648 43.668394 7.44058 43.668394 7.174713 L 43.668394 6.559423 C 43.660798 6.301153 43.626615 6.042883 43.573442 5.780814 C 43.51647 5.514948 43.39873 5.287063 43.212623 5.089562 C 43.117671 4.983215 43.011324 4.895859 42.897382 4.831292 C 42.783439 4.759128 42.654304 4.721147 42.509977 4.709753 Z M 54.614489 0.516662 C 54.986702 0.547046 55.358915 0.573633 55.72733 0.60022 C 56.099542 0.623008 56.456563 0.702768 56.798391 0.839499 C 56.965507 0.907865 57.128825 0.983827 57.280748 1.067385 C 57.440268 1.150943 57.580798 1.261087 57.709933 1.397819 C 57.785894 1.466184 57.861856 1.530752 57.93402 1.591521 C 58.006184 1.648492 58.078347 1.716858 58.150511 1.79282 C 58.226473 1.861185 58.29104 1.937147 58.336617 2.020705 C 58.389791 2.104263 58.43157 2.187821 58.469551 2.278975 C 58.598686 2.503063 58.686042 2.704361 58.743013 2.88667 C 58.796186 3.068978 58.826571 3.262681 58.826571 3.467778 C 58.648061 3.456383 58.423974 3.456383 58.154309 3.467778 C 57.888443 3.475374 57.649163 3.48297 57.43647 3.486768 C 57.227575 3.490566 57.121229 3.486768 57.121229 3.467778 C 57.064257 3.270277 56.992094 3.091767 56.908536 2.932247 C 56.824978 2.768929 56.718631 2.624602 56.5819 2.495467 C 56.452765 2.358735 56.308437 2.267581 56.148918 2.214408 C 55.9856 2.157437 55.818484 2.111859 55.643772 2.073879 C 55.279155 1.994119 54.952519 2.020705 54.660066 2.146042 C 54.49295 2.214408 54.333431 2.294168 54.177709 2.38912 C 54.021987 2.480274 53.87766 2.598015 53.748525 2.730948 C 53.577611 2.917055 53.414293 3.110757 53.266167 3.312056 C 53.12184 3.513355 53.007897 3.737442 52.931935 3.991914 C 52.878762 4.151434 52.844579 4.303357 52.817993 4.459079 C 52.795204 4.607205 52.768618 4.759128 52.742031 4.91485 C 52.700252 5.131341 52.681261 5.340236 52.68506 5.545333 C 52.692656 5.75043 52.700252 5.959325 52.707848 6.175816 C 52.730637 6.380913 52.749627 6.593606 52.768618 6.810097 C 52.787608 7.02279 52.833185 7.235483 52.901551 7.44058 C 52.912945 7.467166 52.94333 7.569715 53.000301 7.748225 C 53.06107 7.919139 53.148427 8.109044 53.266167 8.31414 C 53.334533 8.443275 53.406697 8.55342 53.47886 8.640776 C 53.551024 8.728132 53.623188 8.815488 53.691553 8.902844 C 53.771313 9.001595 53.851073 9.085153 53.930833 9.153518 C 54.014391 9.221884 54.105545 9.290249 54.204296 9.358615 C 54.333431 9.445971 54.466364 9.506741 54.603095 9.537125 C 54.736028 9.563712 54.868961 9.590299 54.994298 9.609289 C 55.134828 9.616885 55.275357 9.609289 55.419684 9.586501 C 55.56781 9.559914 55.708339 9.521933 55.833676 9.476356 L 55.833676 7.189906 L 54.793 7.189906 C 54.755019 7.189906 54.73223 7.155723 54.728432 7.094953 C 54.720836 7.030386 54.709442 6.984809 54.686653 6.954424 C 54.728432 6.749327 54.736028 6.570817 54.717038 6.418893 C 54.698047 6.26697 54.698047 6.084662 54.720836 5.86817 C 54.827182 5.84918 54.922135 5.837786 55.001894 5.837786 C 55.085452 5.837786 55.172809 5.837786 55.260165 5.837786 C 55.457665 5.84918 55.655166 5.84918 55.860263 5.845382 C 56.06536 5.841584 56.266658 5.84918 56.464159 5.86817 C 56.638871 5.887161 56.817381 5.883363 56.995892 5.84918 C 57.1782 5.814997 57.35671 5.807401 57.531422 5.826391 C 57.660557 5.833988 57.782096 5.837786 57.899837 5.83019 C 58.017578 5.826391 58.135319 5.818795 58.253059 5.811199 C 58.439166 5.792209 58.617676 5.784612 58.792388 5.796007 C 58.970898 5.807401 59.149409 5.799805 59.335515 5.780814 C 59.3659 5.792209 59.381092 5.811199 59.381092 5.837786 C 59.381092 5.86817 59.381092 5.898555 59.381092 5.92894 C 59.381092 6.198604 59.381092 6.468269 59.388688 6.734135 C 59.392486 7.000001 59.388688 7.265868 59.381092 7.53933 C 59.381092 7.725436 59.392486 7.915341 59.422871 8.112842 C 59.453256 8.306544 59.46465 8.504045 59.453256 8.697747 C 59.44566 8.97121 59.44566 9.244672 59.453256 9.514337 C 59.46465 9.780203 59.460852 10.053666 59.441862 10.327128 C 59.430467 10.384099 59.426669 10.441071 59.430467 10.50184 C 59.438064 10.558812 59.44566 10.611985 59.453256 10.665158 C 59.453256 10.729726 59.453256 10.809485 59.453256 10.904438 C 59.453256 10.995592 59.434265 11.052563 59.392486 11.071554 C 59.229169 11.033573 59.043062 11.022179 58.837965 11.041169 C 58.632868 11.060159 58.439166 11.067756 58.253059 11.056361 C 58.19229 10.91963 58.120126 10.794293 58.028972 10.668956 C 57.941616 10.547417 57.858058 10.42208 57.782096 10.296743 C 57.706135 10.315734 57.630173 10.349917 57.554211 10.391696 C 57.482047 10.433475 57.406085 10.475254 57.330124 10.517033 C 57.033873 10.672754 56.733823 10.798091 56.418582 10.896842 C 56.107139 10.995592 55.784301 11.067756 55.450069 11.117131 C 55.233578 11.155112 55.013289 11.185496 54.785403 11.204487 C 54.55372 11.227275 54.329633 11.215881 54.105545 11.174102 C 54.052372 11.166506 53.999199 11.166506 53.938429 11.181698 C 53.881458 11.196891 53.824487 11.204487 53.763717 11.204487 C 53.235783 11.174102 52.707848 11.067756 52.183712 10.881649 C 52.084961 10.843668 51.982413 10.813284 51.879865 10.794293 C 51.777316 10.775303 51.674768 10.744918 51.568421 10.706937 C 51.458277 10.668956 51.355728 10.619581 51.260776 10.56261 C 51.162025 10.50184 51.059477 10.448667 50.949332 10.399292 C 50.805005 10.330926 50.67587 10.24357 50.561927 10.141022 C 50.447985 10.038473 50.334042 9.943521 50.216301 9.859963 C 50.071974 9.749818 49.950435 9.624481 49.851684 9.48775 C 49.752934 9.354817 49.650386 9.221884 49.544039 9.096547 C 49.331346 8.823084 49.152836 8.523035 49.016105 8.200198 C 48.879373 7.87736 48.776825 7.565917 48.708459 7.262069 C 48.678075 7.106348 48.651488 6.916443 48.628699 6.696154 C 48.605911 6.479663 48.58692 6.259374 48.575526 6.039084 C 48.564132 5.818795 48.564132 5.644083 48.575526 5.514948 C 48.594517 5.321245 48.609709 5.135139 48.621103 4.956629 C 48.632498 4.774321 48.662882 4.588214 48.719854 4.402108 C 48.773027 4.265376 48.818604 4.151434 48.860383 4.06028 C 48.90596 3.965327 48.959133 3.858981 49.023701 3.729846 C 49.088268 3.600711 49.168028 3.4222 49.266779 3.186719 C 49.312356 3.099363 49.40351 2.962632 49.540241 2.784121 C 49.68077 2.601813 49.783319 2.461284 49.851684 2.362533 C 49.889665 2.305562 49.935242 2.252389 49.988416 2.206812 C 50.041589 2.157437 50.094762 2.111859 50.144137 2.073879 C 50.360629 1.906763 50.57712 1.743445 50.789813 1.583925 C 51.006304 1.420607 51.237987 1.291472 51.496257 1.192722 C 51.678566 1.112962 51.864672 1.037 52.058375 0.95724 C 52.248279 0.87748 52.438184 0.809115 52.62429 0.752143 C 52.810397 0.695172 52.996503 0.645797 53.182609 0.611614 C 53.376312 0.581229 53.570015 0.569835 53.763717 0.577431 C 53.911843 0.577431 54.05617 0.562239 54.196699 0.535652 C 54.341027 0.505267 54.481556 0.497671 54.614489 0.516662 Z M 66.339193 3.125949 C 66.80256 3.137344 67.224148 3.232296 67.615351 3.407008 C 68.006555 3.58172 68.367373 3.813404 68.701605 4.094462 C 68.807952 4.174222 68.9105 4.25778 68.997856 4.345136 C 69.092808 4.432492 69.180164 4.527445 69.256126 4.637589 C 69.423242 4.850282 69.544781 5.078168 69.616945 5.321245 C 69.689108 5.556727 69.730887 5.807401 69.738484 6.061873 C 69.753676 6.517644 69.761272 6.981011 69.76507 7.444378 C 69.768868 7.907745 69.768868 8.371112 69.757474 8.830681 C 69.74608 9.134528 69.738484 9.445971 69.738484 9.761213 C 69.738484 10.080252 69.757474 10.387897 69.787859 10.691745 C 69.795455 10.74112 69.799253 10.790495 69.795455 10.83987 C 69.787859 10.885447 69.761272 10.938621 69.711897 10.99939 C 69.32829 10.961409 68.944683 10.953813 68.561076 10.9804 C 68.17367 11.003188 67.786265 11.014582 67.395062 11.014582 C 67.258331 10.877851 67.144388 10.733524 67.045638 10.577802 C 66.946887 10.42208 66.813954 10.300541 66.646838 10.22458 C 66.608857 10.22458 66.574675 10.235974 66.54429 10.258762 C 66.513905 10.281551 66.487319 10.30434 66.456934 10.327128 C 66.175875 10.570206 65.86823 10.76011 65.541594 10.893043 C 65.214958 11.022179 64.869332 11.113333 64.508514 11.162708 C 64.166686 11.200689 63.824857 11.212083 63.479231 11.204487 C 63.141201 11.193093 62.806969 11.124727 62.484132 10.99939 C 62.123313 10.843668 61.823264 10.634773 61.583984 10.376503 C 61.344705 10.118233 61.181387 9.791597 61.094031 9.404192 C 60.926915 8.667363 61.033261 7.97611 61.416868 7.319041 C 61.602975 7.007597 61.83086 6.756923 62.104323 6.570817 C 62.377785 6.384711 62.68543 6.244181 63.027259 6.145431 C 63.729905 5.951728 64.440148 5.86817 65.150391 5.898555 C 65.29092 5.898555 65.423853 5.906151 65.54919 5.921344 C 65.674527 5.936536 65.803662 5.936536 65.928999 5.92894 C 65.978374 5.917546 66.042942 5.917546 66.118904 5.92894 C 66.198664 5.936536 66.263231 5.936536 66.312606 5.92894 C 66.339193 5.655477 66.289818 5.423794 66.156885 5.237687 C 66.02775 5.051581 65.834047 4.91485 65.579575 4.831292 C 65.283324 4.721147 65.002265 4.679368 64.732601 4.705955 C 64.466735 4.728743 64.189474 4.778119 63.904617 4.857878 C 63.699521 4.907254 63.52101 4.949033 63.36149 4.990812 C 63.205769 5.028793 63.031057 5.100956 62.837354 5.207303 C 62.768988 5.249082 62.68543 5.294659 62.582882 5.347832 C 62.480334 5.404803 62.415766 5.419996 62.396776 5.397207 C 62.3474 5.359226 62.279035 5.268072 62.184083 5.116149 C 62.092928 4.964225 61.997976 4.789513 61.899226 4.592012 C 61.800476 4.39831 61.709321 4.227396 61.618167 4.083068 C 61.67134 3.972924 61.73211 3.90076 61.808072 3.862779 C 61.887832 3.821 61.959995 3.786817 62.032159 3.76023 C 62.423362 3.600711 62.818364 3.475374 63.220961 3.376623 C 63.619761 3.277873 64.029954 3.209507 64.451542 3.171527 C 65.085823 3.122151 65.716306 3.106959 66.339193 3.125949 Z M 66.369578 7.334233 C 66.244241 7.334233 66.118904 7.338031 66.004961 7.341829 C 65.88722 7.345627 65.773278 7.357022 65.666931 7.37981 C 65.237747 7.474762 64.941496 7.657071 64.778178 7.922937 C 64.618658 8.185005 64.557889 8.507843 64.59587 8.887652 C 64.626254 9.073758 64.706014 9.22948 64.835149 9.358615 C 64.971881 9.483952 65.127602 9.56751 65.306113 9.609289 C 65.488421 9.64727 65.655537 9.632078 65.815057 9.563712 C 66.039144 9.476356 66.229048 9.32823 66.38477 9.123134 C 66.354385 8.842075 66.346789 8.549622 66.354385 8.249573 C 66.36578 7.953322 66.369578 7.645677 66.369578 7.334233 Z M 74.505086 3.30446 C 74.649414 3.726048 74.808934 4.132443 74.979848 4.527445 C 75.150762 4.926244 75.329272 5.317447 75.515378 5.704853 C 75.701485 6.08846 75.868601 6.483461 76.016726 6.886059 C 76.172448 7.292454 76.354756 7.695052 76.567449 8.097649 C 76.84471 7.296252 77.129567 6.510048 77.429616 5.739035 C 77.725867 4.964225 77.972743 4.17802 78.170243 3.376623 C 78.481687 3.338642 78.77414 3.331046 79.047602 3.353835 C 79.321065 3.380421 79.605921 3.372825 79.898374 3.334844 C 79.917365 3.32345 79.936355 3.327248 79.955346 3.342441 C 79.978134 3.353835 79.993326 3.365229 80.000923 3.376623 C 80.019913 3.437393 80.019913 3.48297 80.000923 3.517153 C 79.981932 3.551336 79.962942 3.585518 79.943951 3.627297 C 79.590729 4.39831 79.264093 5.180716 78.960246 5.978315 C 78.656399 6.775914 78.352552 7.569715 78.052503 8.363516 C 77.836011 8.948421 77.604328 9.521933 77.353654 10.091646 C 77.10298 10.657562 76.8637 11.231073 76.628219 11.804585 C 76.502882 12.108432 76.362352 12.400885 76.202833 12.678146 C 76.047111 12.959204 75.872399 13.225071 75.678696 13.475745 C 75.33307 13.939112 74.865905 14.212574 74.269605 14.29993 C 74.003739 14.337911 73.787247 14.3607 73.616333 14.364498 C 73.445419 14.368296 73.221332 14.356902 72.951668 14.330315 C 72.64782 14.29993 72.324983 14.216372 71.979357 14.079641 C 71.641327 13.94291 71.371662 13.745409 71.174162 13.490937 C 71.246325 13.228869 71.360268 12.997185 71.519788 12.795887 C 71.683106 12.594588 71.831231 12.389491 71.967962 12.173 C 72.043924 12.154009 72.108492 12.150211 72.157867 12.169202 C 72.207242 12.19199 72.249021 12.218577 72.287002 12.245163 C 72.552868 12.423674 72.837725 12.537616 73.141572 12.594588 C 73.502391 12.666751 73.848017 12.605982 74.174653 12.419876 C 74.501288 12.233769 74.729174 11.986893 74.854511 11.671652 C 74.201239 10.315734 73.532775 8.952219 72.852917 7.584907 C 72.173059 6.217595 71.546374 4.808503 70.972863 3.361431 C 70.999449 3.342441 71.139979 3.334844 71.394451 3.334844 C 71.648923 3.334844 71.960366 3.334844 72.332579 3.342441 C 72.704792 3.346239 73.084601 3.346239 73.475804 3.342441 C 73.867007 3.334844 74.208835 3.32345 74.505086 3.30446 Z M 86.244983 3.125949 C 86.704551 3.137344 87.129938 3.232296 87.517343 3.407008 C 87.908546 3.58172 88.273163 3.813404 88.607395 4.094462 C 88.713741 4.174222 88.812491 4.25778 88.903646 4.345136 C 88.9948 4.432492 89.082156 4.527445 89.161916 4.637589 C 89.329032 4.850282 89.446772 5.078168 89.518936 5.321245 C 89.5911 5.556727 89.632879 5.807401 89.644273 6.061873 C 89.655667 6.517644 89.663264 6.981011 89.667062 7.444378 C 89.674658 7.907745 89.67086 8.371112 89.663264 8.830681 C 89.648071 9.134528 89.644273 9.445971 89.644273 9.761213 C 89.644273 10.080252 89.659465 10.387897 89.68985 10.691745 C 89.701244 10.74112 89.701244 10.790495 89.697446 10.83987 C 89.693648 10.885447 89.663264 10.938621 89.613888 10.99939 C 89.234079 10.961409 88.850472 10.953813 88.463067 10.9804 C 88.07946 11.003188 87.692055 11.014582 87.300852 11.014582 C 87.16412 10.877851 87.04638 10.733524 86.947629 10.577802 C 86.848879 10.42208 86.719744 10.300541 86.552628 10.22458 C 86.514647 10.22458 86.476666 10.235974 86.446281 10.258762 C 86.419695 10.281551 86.38931 10.30434 86.362723 10.327128 C 86.077867 10.570206 85.774019 10.76011 85.443586 10.893043 C 85.11695 11.022179 84.775122 11.113333 84.410505 11.162708 C 84.068677 11.200689 83.726849 11.212083 83.385021 11.204487 C 83.043193 11.193093 82.712759 11.124727 82.389921 10.99939 C 82.025305 10.843668 81.725256 10.634773 81.485976 10.376503 C 81.246696 10.118233 81.083378 9.791597 80.996022 9.404192 C 80.828906 8.667363 80.935253 7.97611 81.31886 7.319041 C 81.504966 7.007597 81.732852 6.756923 82.006314 6.570817 C 82.279777 6.384711 82.587422 6.244181 82.92925 6.145431 C 83.631897 5.951728 84.34214 5.86817 85.05618 5.898555 C 85.192912 5.898555 85.325845 5.906151 85.451182 5.921344 C 85.580317 5.936536 85.705654 5.936536 85.830991 5.92894 C 85.880366 5.917546 85.944933 5.917546 86.020895 5.92894 C 86.100655 5.936536 86.165223 5.936536 86.214598 5.92894 C 86.244983 5.655477 86.191809 5.423794 86.062674 5.237687 C 85.929741 5.051581 85.736039 4.91485 85.481567 4.831292 C 85.189114 4.721147 84.904257 4.679368 84.634592 4.705955 C 84.368726 4.728743 84.095264 4.778119 83.810407 4.857878 C 83.60531 4.907254 83.423002 4.949033 83.26728 4.990812 C 83.111558 5.028793 82.936846 5.100956 82.739346 5.207303 C 82.67098 5.249082 82.587422 5.294659 82.484874 5.347832 C 82.382325 5.404803 82.321556 5.419996 82.298767 5.397207 C 82.25319 5.359226 82.181026 5.268072 82.089872 5.116149 C 81.99492 4.964225 81.899968 4.789513 81.801217 4.592012 C 81.702467 4.39831 81.611313 4.227396 81.523957 4.083068 C 81.573332 3.972924 81.637899 3.90076 81.713861 3.862779 C 81.789823 3.821 81.865785 3.786817 81.93415 3.76023 C 82.325354 3.600711 82.720355 3.475374 83.122953 3.376623 C 83.521752 3.277873 83.931946 3.209507 84.353534 3.171527 C 84.987815 3.122151 85.618298 3.106959 86.244983 3.125949 Z M 86.271569 7.334233 C 86.146232 7.334233 86.024693 7.338031 85.906953 7.341829 C 85.789212 7.345627 85.679067 7.357022 85.568923 7.37981 C 85.139738 7.474762 84.843487 7.657071 84.683968 7.922937 C 84.52065 8.185005 84.45988 8.507843 84.501659 8.887652 C 84.528246 9.073758 84.608006 9.22948 84.740939 9.358615 C 84.873872 9.483952 85.029594 9.56751 85.208104 9.609289 C 85.390412 9.64727 85.561326 9.632078 85.717048 9.563712 C 85.941135 9.476356 86.13104 9.32823 86.286762 9.123134 C 86.256377 8.842075 86.248781 8.549622 86.256377 8.249573 C 86.267771 7.953322 86.271569 7.645677 86.271569 7.334233 Z M 86.271569 7.334233 " stroke="#006032" stroke-width="0.641668" stroke-opacity="1" stroke-miterlimit="4"/><g fill="#00bf63" fill-opacity="1"><g transform="translate(52.289179, 26.613909)"><g><path d="M 9.6875 -10.546875 C 10.019531 -10.578125 10.171875 -10.445312 10.140625 -10.15625 C 10.128906 -10.019531 10.125 -9.882812 10.125 -9.75 C 10.132812 -9.613281 10.144531 -9.472656 10.15625 -9.328125 C 10.164062 -9.285156 10.164062 -9.25 10.15625 -9.21875 C 10.144531 -9.1875 10.132812 -9.148438 10.125 -9.109375 C 9.269531 -9.097656 8.414062 -9.101562 7.5625 -9.125 C 6.707031 -9.144531 5.851562 -9.113281 5 -9.03125 C 5.019531 -8.582031 5.015625 -8.113281 4.984375 -7.625 C 4.960938 -7.144531 4.976562 -6.675781 5.03125 -6.21875 C 5.207031 -6.238281 5.378906 -6.234375 5.546875 -6.203125 C 5.722656 -6.179688 5.894531 -6.179688 6.0625 -6.203125 C 6.1875 -6.222656 6.304688 -6.234375 6.421875 -6.234375 C 6.546875 -6.234375 6.664062 -6.226562 6.78125 -6.21875 C 7.039062 -6.21875 7.300781 -6.222656 7.5625 -6.234375 C 7.832031 -6.242188 8.101562 -6.253906 8.375 -6.265625 C 8.5 -6.273438 8.625 -6.28125 8.75 -6.28125 C 8.875 -6.289062 9.003906 -6.289062 9.140625 -6.28125 C 9.367188 -6.257812 9.472656 -6.144531 9.453125 -5.9375 C 9.441406 -5.769531 9.4375 -5.601562 9.4375 -5.4375 C 9.445312 -5.269531 9.457031 -5.101562 9.46875 -4.9375 C 9.46875 -4.75 9.390625 -4.65625 9.234375 -4.65625 C 9.085938 -4.65625 8.941406 -4.648438 8.796875 -4.640625 C 8.648438 -4.640625 8.507812 -4.640625 8.375 -4.640625 C 8.101562 -4.640625 7.832031 -4.632812 7.5625 -4.625 C 7.289062 -4.613281 7.019531 -4.601562 6.75 -4.59375 C 6.65625 -4.582031 6.550781 -4.578125 6.4375 -4.578125 C 6.332031 -4.578125 6.226562 -4.578125 6.125 -4.578125 L 5 -4.578125 C 4.96875 -4.054688 4.960938 -3.535156 4.984375 -3.015625 C 5.015625 -2.492188 5.039062 -1.972656 5.0625 -1.453125 C 5.125 -1.410156 5.191406 -1.394531 5.265625 -1.40625 C 5.335938 -1.414062 5.40625 -1.414062 5.46875 -1.40625 C 5.632812 -1.394531 5.796875 -1.382812 5.953125 -1.375 C 6.117188 -1.375 6.273438 -1.378906 6.421875 -1.390625 C 6.617188 -1.410156 6.8125 -1.421875 7 -1.421875 C 7.195312 -1.421875 7.390625 -1.4375 7.578125 -1.46875 C 7.691406 -1.488281 7.8125 -1.492188 7.9375 -1.484375 C 8.0625 -1.472656 8.1875 -1.472656 8.3125 -1.484375 C 8.5625 -1.503906 8.8125 -1.515625 9.0625 -1.515625 C 9.3125 -1.515625 9.5625 -1.515625 9.8125 -1.515625 C 9.96875 -1.515625 10.117188 -1.53125 10.265625 -1.5625 C 10.421875 -1.601562 10.578125 -1.582031 10.734375 -1.5 L 10.734375 -0.375 C 10.753906 -0.144531 10.65625 -0.0390625 10.4375 -0.0625 C 10.1875 -0.0703125 9.929688 -0.0625 9.671875 -0.03125 C 9.421875 -0.0078125 9.164062 -0.00390625 8.90625 -0.015625 C 8.582031 -0.0351562 8.257812 -0.0390625 7.9375 -0.03125 C 7.613281 -0.0195312 7.289062 -0.0078125 6.96875 0 C 6.550781 0.0078125 6.128906 0.015625 5.703125 0.015625 C 5.285156 0.015625 4.867188 0.015625 4.453125 0.015625 C 4.410156 0.015625 4.3125 0.015625 4.15625 0.015625 C 4 0.0234375 3.820312 0.0351562 3.625 0.046875 C 3.425781 0.0546875 3.238281 0.0625 3.0625 0.0625 C 2.882812 0.0703125 2.757812 0.078125 2.6875 0.078125 C 2.488281 0.0546875 2.296875 0.0390625 2.109375 0.03125 C 1.929688 0.0195312 1.738281 0.015625 1.53125 0.015625 C 1.46875 0.015625 1.363281 0.0195312 1.21875 0.03125 C 1.070312 0.0507812 1 0.046875 1 0.015625 C 1.019531 -0.191406 1.023438 -0.40625 1.015625 -0.625 C 1.015625 -0.84375 1.003906 -1.054688 0.984375 -1.265625 C 0.953125 -1.554688 0.953125 -1.859375 0.984375 -2.171875 C 1.003906 -2.316406 1.007812 -2.46875 1 -2.625 C 1 -2.789062 1 -2.957031 1 -3.125 C 1 -3.25 1 -3.375 1 -3.5 C 1.007812 -3.625 1.003906 -3.753906 0.984375 -3.890625 C 0.972656 -4.085938 0.957031 -4.285156 0.9375 -4.484375 C 0.925781 -4.691406 0.921875 -4.894531 0.921875 -5.09375 C 0.921875 -5.300781 0.914062 -5.515625 0.90625 -5.734375 C 0.90625 -5.953125 0.90625 -6.164062 0.90625 -6.375 C 0.914062 -6.582031 0.921875 -6.789062 0.921875 -7 C 0.929688 -7.21875 0.941406 -7.429688 0.953125 -7.640625 C 0.972656 -8.359375 0.972656 -8.96875 0.953125 -9.46875 C 0.929688 -9.96875 0.914062 -10.269531 0.90625 -10.375 C 0.925781 -10.394531 0.953125 -10.410156 0.984375 -10.421875 C 1.015625 -10.429688 1.035156 -10.445312 1.046875 -10.46875 C 1.109375 -10.488281 1.160156 -10.492188 1.203125 -10.484375 C 1.253906 -10.484375 1.316406 -10.484375 1.390625 -10.484375 C 1.859375 -10.503906 2.332031 -10.503906 2.8125 -10.484375 C 3.289062 -10.472656 3.765625 -10.476562 4.234375 -10.5 C 4.410156 -10.507812 4.582031 -10.507812 4.75 -10.5 C 4.914062 -10.5 5.082031 -10.503906 5.25 -10.515625 C 5.488281 -10.535156 5.726562 -10.535156 5.96875 -10.515625 C 6.21875 -10.503906 6.460938 -10.507812 6.703125 -10.53125 C 6.941406 -10.539062 7.179688 -10.539062 7.421875 -10.53125 C 7.660156 -10.519531 7.898438 -10.523438 8.140625 -10.546875 C 8.367188 -10.554688 8.601562 -10.554688 8.84375 -10.546875 C 9.09375 -10.546875 9.335938 -10.546875 9.578125 -10.546875 Z M 9.6875 -10.546875 "/></g></g></g><g fill="#00bf63" fill-opacity="1"><g transform="translate(63.473856, 26.613909)"><g><path d="M 6.25 -8.046875 C 6.289062 -8.035156 6.328125 -8.03125 6.359375 -8.03125 C 6.398438 -8.03125 6.441406 -8.019531 6.484375 -8 C 6.679688 -7.9375 6.878906 -7.867188 7.078125 -7.796875 C 7.285156 -7.722656 7.476562 -7.632812 7.65625 -7.53125 C 7.96875 -7.332031 8.234375 -7.097656 8.453125 -6.828125 C 8.679688 -6.566406 8.832031 -6.242188 8.90625 -5.859375 C 8.914062 -5.828125 8.921875 -5.796875 8.921875 -5.765625 C 8.921875 -5.734375 8.921875 -5.703125 8.921875 -5.671875 C 8.929688 -5.648438 8.929688 -5.625 8.921875 -5.59375 C 8.921875 -5.570312 8.921875 -5.539062 8.921875 -5.5 C 8.671875 -5.5 8.421875 -5.476562 8.171875 -5.4375 C 7.929688 -5.40625 7.679688 -5.40625 7.421875 -5.4375 C 7.378906 -5.476562 7.351562 -5.515625 7.34375 -5.546875 C 7.269531 -5.828125 7.140625 -6.039062 6.953125 -6.1875 C 6.773438 -6.34375 6.554688 -6.457031 6.296875 -6.53125 C 6.085938 -6.59375 5.882812 -6.597656 5.6875 -6.546875 C 5.488281 -6.492188 5.304688 -6.394531 5.140625 -6.25 C 4.773438 -5.957031 4.554688 -5.570312 4.484375 -5.09375 C 4.453125 -4.945312 4.421875 -4.796875 4.390625 -4.640625 C 4.359375 -4.492188 4.332031 -4.347656 4.3125 -4.203125 C 4.269531 -3.929688 4.273438 -3.664062 4.328125 -3.40625 C 4.378906 -3.15625 4.441406 -2.90625 4.515625 -2.65625 C 4.554688 -2.488281 4.628906 -2.328125 4.734375 -2.171875 C 4.847656 -2.015625 4.984375 -1.882812 5.140625 -1.78125 C 5.429688 -1.582031 5.753906 -1.484375 6.109375 -1.484375 C 6.429688 -1.472656 6.726562 -1.53125 7 -1.65625 C 7.269531 -1.789062 7.523438 -1.953125 7.765625 -2.140625 C 7.835938 -2.203125 7.90625 -2.257812 7.96875 -2.3125 C 8.03125 -2.375 8.113281 -2.425781 8.21875 -2.46875 C 8.394531 -2.351562 8.554688 -2.210938 8.703125 -2.046875 C 8.859375 -1.890625 9.019531 -1.738281 9.1875 -1.59375 C 9.175781 -1.5625 9.164062 -1.535156 9.15625 -1.515625 C 9.15625 -1.503906 9.148438 -1.492188 9.140625 -1.484375 C 8.867188 -1.222656 8.585938 -0.976562 8.296875 -0.75 C 8.015625 -0.519531 7.695312 -0.335938 7.34375 -0.203125 C 7.09375 -0.0976562 6.828125 -0.0234375 6.546875 0.015625 C 6.273438 0.0546875 6 0.101562 5.71875 0.15625 C 5.226562 0.238281 4.753906 0.234375 4.296875 0.140625 C 3.835938 0.046875 3.382812 -0.0820312 2.9375 -0.25 C 2.65625 -0.363281 2.398438 -0.507812 2.171875 -0.6875 C 1.953125 -0.875 1.738281 -1.078125 1.53125 -1.296875 C 1.4375 -1.421875 1.335938 -1.539062 1.234375 -1.65625 C 1.128906 -1.769531 1.054688 -1.90625 1.015625 -2.0625 C 0.929688 -2.382812 0.847656 -2.707031 0.765625 -3.03125 C 0.679688 -3.363281 0.648438 -3.703125 0.671875 -4.046875 C 0.703125 -4.398438 0.757812 -4.75 0.84375 -5.09375 C 0.9375 -5.445312 1.082031 -5.785156 1.28125 -6.109375 C 1.445312 -6.378906 1.640625 -6.625 1.859375 -6.84375 C 2.078125 -7.070312 2.3125 -7.285156 2.5625 -7.484375 C 2.769531 -7.628906 2.992188 -7.742188 3.234375 -7.828125 C 3.472656 -7.921875 3.71875 -7.984375 3.96875 -8.015625 C 4.34375 -8.097656 4.722656 -8.144531 5.109375 -8.15625 C 5.492188 -8.164062 5.875 -8.128906 6.25 -8.046875 Z M 6.25 -8.046875 "/></g></g></g><g fill="#00bf63" fill-opacity="1"><g transform="translate(73.332039, 26.613909)"><g><path d="M 4.734375 -8.0625 C 5.097656 -8.113281 5.457031 -8.140625 5.8125 -8.140625 C 6.175781 -8.140625 6.539062 -8.101562 6.90625 -8.03125 C 7.132812 -7.988281 7.363281 -7.929688 7.59375 -7.859375 C 7.820312 -7.785156 8.046875 -7.695312 8.265625 -7.59375 C 8.640625 -7.4375 8.972656 -7.222656 9.265625 -6.953125 C 9.554688 -6.691406 9.816406 -6.382812 10.046875 -6.03125 C 10.203125 -5.78125 10.320312 -5.515625 10.40625 -5.234375 C 10.5 -4.953125 10.570312 -4.664062 10.625 -4.375 C 10.6875 -4.070312 10.707031 -3.769531 10.6875 -3.46875 C 10.664062 -3.164062 10.617188 -2.867188 10.546875 -2.578125 C 10.453125 -2.148438 10.273438 -1.773438 10.015625 -1.453125 C 9.929688 -1.347656 9.851562 -1.242188 9.78125 -1.140625 C 9.707031 -1.035156 9.617188 -0.941406 9.515625 -0.859375 C 9.078125 -0.453125 8.597656 -0.171875 8.078125 -0.015625 C 7.554688 0.140625 7.007812 0.226562 6.4375 0.25 C 6.21875 0.25 5.988281 0.253906 5.75 0.265625 C 5.507812 0.273438 5.273438 0.269531 5.046875 0.25 C 4.785156 0.226562 4.523438 0.203125 4.265625 0.171875 C 4.003906 0.140625 3.75 0.0703125 3.5 -0.03125 C 3.488281 -0.03125 3.476562 -0.03125 3.46875 -0.03125 C 3.457031 -0.0390625 3.445312 -0.046875 3.4375 -0.046875 C 2.976562 -0.160156 2.578125 -0.347656 2.234375 -0.609375 C 1.890625 -0.867188 1.585938 -1.175781 1.328125 -1.53125 C 0.972656 -2.03125 0.765625 -2.582031 0.703125 -3.1875 C 0.671875 -3.5 0.664062 -3.8125 0.6875 -4.125 C 0.707031 -4.445312 0.765625 -4.765625 0.859375 -5.078125 C 1.054688 -5.742188 1.363281 -6.289062 1.78125 -6.71875 C 2.207031 -7.15625 2.742188 -7.484375 3.390625 -7.703125 C 3.609375 -7.785156 3.832031 -7.859375 4.0625 -7.921875 C 4.289062 -7.984375 4.515625 -8.03125 4.734375 -8.0625 Z M 5.8125 -6.46875 C 5.582031 -6.488281 5.367188 -6.429688 5.171875 -6.296875 C 4.972656 -6.171875 4.832031 -5.992188 4.75 -5.765625 C 4.632812 -5.453125 4.535156 -5.140625 4.453125 -4.828125 C 4.367188 -4.515625 4.335938 -4.191406 4.359375 -3.859375 C 4.378906 -3.597656 4.398438 -3.332031 4.421875 -3.0625 C 4.453125 -2.800781 4.515625 -2.539062 4.609375 -2.28125 C 4.640625 -2.195312 4.679688 -2.113281 4.734375 -2.03125 C 4.796875 -1.945312 4.859375 -1.867188 4.921875 -1.796875 C 5.117188 -1.546875 5.359375 -1.398438 5.640625 -1.359375 C 5.921875 -1.316406 6.175781 -1.414062 6.40625 -1.65625 C 6.507812 -1.75 6.59375 -1.851562 6.65625 -1.96875 C 6.71875 -2.082031 6.769531 -2.207031 6.8125 -2.34375 C 6.894531 -2.601562 6.945312 -2.863281 6.96875 -3.125 C 7 -3.394531 7.015625 -3.664062 7.015625 -3.9375 L 7.015625 -4.5625 C 7.003906 -4.820312 6.96875 -5.085938 6.90625 -5.359375 C 6.851562 -5.640625 6.734375 -5.878906 6.546875 -6.078125 C 6.441406 -6.191406 6.332031 -6.28125 6.21875 -6.34375 C 6.101562 -6.414062 5.96875 -6.457031 5.8125 -6.46875 Z M 5.8125 -6.46875 "/></g></g></g><g fill="#00bf63" fill-opacity="1"><g transform="translate(84.697597, 26.613909)"><g><path d="M 6.90625 -10.78125 C 7.289062 -10.75 7.671875 -10.71875 8.046875 -10.6875 C 8.429688 -10.664062 8.800781 -10.585938 9.15625 -10.453125 C 9.320312 -10.378906 9.484375 -10.300781 9.640625 -10.21875 C 9.804688 -10.132812 9.957031 -10.019531 10.09375 -9.875 C 10.164062 -9.800781 10.238281 -9.734375 10.3125 -9.671875 C 10.394531 -9.617188 10.472656 -9.550781 10.546875 -9.46875 C 10.617188 -9.394531 10.679688 -9.316406 10.734375 -9.234375 C 10.785156 -9.148438 10.832031 -9.0625 10.875 -8.96875 C 11 -8.738281 11.085938 -8.53125 11.140625 -8.34375 C 11.203125 -8.15625 11.234375 -7.957031 11.234375 -7.75 C 11.054688 -7.757812 10.828125 -7.757812 10.546875 -7.75 C 10.265625 -7.738281 10.015625 -7.726562 9.796875 -7.71875 C 9.585938 -7.71875 9.484375 -7.726562 9.484375 -7.75 C 9.421875 -7.945312 9.347656 -8.128906 9.265625 -8.296875 C 9.179688 -8.460938 9.066406 -8.613281 8.921875 -8.75 C 8.796875 -8.882812 8.648438 -8.976562 8.484375 -9.03125 C 8.316406 -9.09375 8.144531 -9.144531 7.96875 -9.1875 C 7.59375 -9.257812 7.253906 -9.234375 6.953125 -9.109375 C 6.773438 -9.035156 6.609375 -8.953125 6.453125 -8.859375 C 6.296875 -8.765625 6.148438 -8.644531 6.015625 -8.5 C 5.835938 -8.3125 5.671875 -8.113281 5.515625 -7.90625 C 5.367188 -7.695312 5.253906 -7.460938 5.171875 -7.203125 C 5.117188 -7.046875 5.078125 -6.890625 5.046875 -6.734375 C 5.023438 -6.578125 5 -6.414062 4.96875 -6.25 C 4.9375 -6.03125 4.921875 -5.816406 4.921875 -5.609375 C 4.929688 -5.398438 4.941406 -5.179688 4.953125 -4.953125 C 4.960938 -4.742188 4.976562 -4.53125 5 -4.3125 C 5.019531 -4.09375 5.066406 -3.875 5.140625 -3.65625 C 5.148438 -3.632812 5.1875 -3.53125 5.25 -3.34375 C 5.3125 -3.164062 5.398438 -2.972656 5.515625 -2.765625 C 5.585938 -2.628906 5.660156 -2.515625 5.734375 -2.421875 C 5.804688 -2.335938 5.878906 -2.25 5.953125 -2.15625 C 6.035156 -2.050781 6.117188 -1.960938 6.203125 -1.890625 C 6.285156 -1.828125 6.378906 -1.757812 6.484375 -1.6875 C 6.609375 -1.59375 6.742188 -1.53125 6.890625 -1.5 C 7.035156 -1.476562 7.171875 -1.457031 7.296875 -1.4375 C 7.441406 -1.425781 7.585938 -1.429688 7.734375 -1.453125 C 7.890625 -1.484375 8.03125 -1.519531 8.15625 -1.5625 L 8.15625 -3.921875 L 7.09375 -3.921875 C 7.050781 -3.921875 7.023438 -3.953125 7.015625 -4.015625 C 7.015625 -4.078125 7.003906 -4.125 6.984375 -4.15625 C 7.023438 -4.375 7.035156 -4.5625 7.015625 -4.71875 C 6.992188 -4.875 6.992188 -5.0625 7.015625 -5.28125 C 7.117188 -5.300781 7.210938 -5.3125 7.296875 -5.3125 C 7.390625 -5.3125 7.476562 -5.3125 7.5625 -5.3125 C 7.769531 -5.300781 7.976562 -5.296875 8.1875 -5.296875 C 8.394531 -5.304688 8.601562 -5.300781 8.8125 -5.28125 C 8.988281 -5.257812 9.171875 -5.265625 9.359375 -5.296875 C 9.546875 -5.335938 9.726562 -5.347656 9.90625 -5.328125 C 10.039062 -5.316406 10.164062 -5.3125 10.28125 -5.3125 C 10.40625 -5.320312 10.523438 -5.332031 10.640625 -5.34375 C 10.835938 -5.363281 11.023438 -5.367188 11.203125 -5.359375 C 11.378906 -5.347656 11.566406 -5.351562 11.765625 -5.375 C 11.796875 -5.363281 11.8125 -5.34375 11.8125 -5.3125 C 11.8125 -5.28125 11.8125 -5.25 11.8125 -5.21875 C 11.8125 -4.9375 11.8125 -4.660156 11.8125 -4.390625 C 11.820312 -4.117188 11.820312 -3.84375 11.8125 -3.5625 C 11.8125 -3.363281 11.820312 -3.164062 11.84375 -2.96875 C 11.875 -2.769531 11.882812 -2.570312 11.875 -2.375 C 11.863281 -2.082031 11.863281 -1.796875 11.875 -1.515625 C 11.882812 -1.242188 11.878906 -0.96875 11.859375 -0.6875 C 11.847656 -0.632812 11.84375 -0.578125 11.84375 -0.515625 C 11.851562 -0.453125 11.863281 -0.394531 11.875 -0.34375 C 11.875 -0.269531 11.875 -0.1875 11.875 -0.09375 C 11.875 0 11.859375 0.0546875 11.828125 0.078125 C 11.648438 0.0351562 11.457031 0.0234375 11.25 0.046875 C 11.039062 0.0664062 10.835938 0.0703125 10.640625 0.0625 C 10.578125 -0.0820312 10.5 -0.21875 10.40625 -0.34375 C 10.320312 -0.46875 10.238281 -0.59375 10.15625 -0.71875 C 10.082031 -0.695312 10.003906 -0.664062 9.921875 -0.625 C 9.847656 -0.582031 9.769531 -0.539062 9.6875 -0.5 C 9.394531 -0.332031 9.085938 -0.195312 8.765625 -0.09375 C 8.441406 0 8.109375 0.0703125 7.765625 0.125 C 7.546875 0.164062 7.316406 0.191406 7.078125 0.203125 C 6.835938 0.222656 6.601562 0.21875 6.375 0.1875 C 6.320312 0.175781 6.265625 0.175781 6.203125 0.1875 C 6.148438 0.207031 6.09375 0.21875 6.03125 0.21875 C 5.488281 0.1875 4.945312 0.0703125 4.40625 -0.125 C 4.300781 -0.164062 4.195312 -0.191406 4.09375 -0.203125 C 3.988281 -0.222656 3.878906 -0.253906 3.765625 -0.296875 C 3.660156 -0.335938 3.554688 -0.390625 3.453125 -0.453125 C 3.347656 -0.515625 3.242188 -0.570312 3.140625 -0.625 C 2.984375 -0.6875 2.847656 -0.769531 2.734375 -0.875 C 2.617188 -0.988281 2.5 -1.085938 2.375 -1.171875 C 2.226562 -1.285156 2.101562 -1.410156 2 -1.546875 C 1.90625 -1.691406 1.800781 -1.828125 1.6875 -1.953125 C 1.46875 -2.234375 1.285156 -2.539062 1.140625 -2.875 C 1.003906 -3.207031 0.898438 -3.53125 0.828125 -3.84375 C 0.796875 -4.007812 0.765625 -4.203125 0.734375 -4.421875 C 0.710938 -4.648438 0.695312 -4.875 0.6875 -5.09375 C 0.675781 -5.320312 0.675781 -5.503906 0.6875 -5.640625 C 0.707031 -5.835938 0.722656 -6.03125 0.734375 -6.21875 C 0.742188 -6.40625 0.78125 -6.59375 0.84375 -6.78125 C 0.894531 -6.925781 0.941406 -7.046875 0.984375 -7.140625 C 1.035156 -7.234375 1.09375 -7.34375 1.15625 -7.46875 C 1.21875 -7.601562 1.300781 -7.789062 1.40625 -8.03125 C 1.457031 -8.125 1.550781 -8.265625 1.6875 -8.453125 C 1.832031 -8.640625 1.9375 -8.78125 2 -8.875 C 2.039062 -8.9375 2.085938 -8.992188 2.140625 -9.046875 C 2.203125 -9.097656 2.257812 -9.144531 2.3125 -9.1875 C 2.53125 -9.351562 2.75 -9.519531 2.96875 -9.6875 C 3.1875 -9.851562 3.425781 -9.988281 3.6875 -10.09375 C 3.882812 -10.164062 4.078125 -10.242188 4.265625 -10.328125 C 4.460938 -10.410156 4.660156 -10.484375 4.859375 -10.546875 C 5.046875 -10.597656 5.238281 -10.640625 5.4375 -10.671875 C 5.632812 -10.710938 5.832031 -10.726562 6.03125 -10.71875 C 6.175781 -10.71875 6.320312 -10.734375 6.46875 -10.765625 C 6.613281 -10.796875 6.757812 -10.800781 6.90625 -10.78125 Z M 6.90625 -10.78125 "/></g></g></g><g fill="#00bf63" fill-opacity="1"><g transform="translate(97.510221, 26.613909)"><g><path d="M 6.15625 -8.09375 C 6.625 -8.082031 7.054688 -7.984375 7.453125 -7.796875 C 7.859375 -7.617188 8.234375 -7.390625 8.578125 -7.109375 C 8.691406 -7.023438 8.796875 -6.9375 8.890625 -6.84375 C 8.984375 -6.75 9.070312 -6.648438 9.15625 -6.546875 C 9.320312 -6.328125 9.441406 -6.09375 9.515625 -5.84375 C 9.597656 -5.59375 9.644531 -5.335938 9.65625 -5.078125 C 9.664062 -4.609375 9.671875 -4.132812 9.671875 -3.65625 C 9.679688 -3.175781 9.679688 -2.703125 9.671875 -2.234375 C 9.660156 -1.921875 9.65625 -1.597656 9.65625 -1.265625 C 9.65625 -0.941406 9.664062 -0.625 9.6875 -0.3125 C 9.695312 -0.257812 9.695312 -0.207031 9.6875 -0.15625 C 9.6875 -0.113281 9.664062 -0.0625 9.625 0 C 9.226562 -0.0390625 8.832031 -0.046875 8.4375 -0.015625 C 8.039062 0.00390625 7.640625 0.015625 7.234375 0.015625 C 7.097656 -0.128906 6.976562 -0.28125 6.875 -0.4375 C 6.769531 -0.59375 6.632812 -0.710938 6.46875 -0.796875 C 6.425781 -0.796875 6.390625 -0.78125 6.359375 -0.75 C 6.328125 -0.726562 6.296875 -0.707031 6.265625 -0.6875 C 5.972656 -0.4375 5.660156 -0.242188 5.328125 -0.109375 C 4.992188 0.0234375 4.640625 0.117188 4.265625 0.171875 C 3.910156 0.203125 3.554688 0.210938 3.203125 0.203125 C 2.859375 0.203125 2.519531 0.132812 2.1875 0 C 1.8125 -0.15625 1.5 -0.367188 1.25 -0.640625 C 1.007812 -0.910156 0.84375 -1.242188 0.75 -1.640625 C 0.582031 -2.398438 0.691406 -3.113281 1.078125 -3.78125 C 1.273438 -4.101562 1.515625 -4.359375 1.796875 -4.546875 C 2.078125 -4.742188 2.394531 -4.890625 2.75 -4.984375 C 3.46875 -5.191406 4.195312 -5.28125 4.9375 -5.25 C 5.070312 -5.25 5.203125 -5.238281 5.328125 -5.21875 C 5.460938 -5.207031 5.597656 -5.207031 5.734375 -5.21875 C 5.785156 -5.226562 5.847656 -5.226562 5.921875 -5.21875 C 6.003906 -5.207031 6.070312 -5.207031 6.125 -5.21875 C 6.15625 -5.5 6.101562 -5.734375 5.96875 -5.921875 C 5.832031 -6.117188 5.632812 -6.257812 5.375 -6.34375 C 5.070312 -6.457031 4.78125 -6.5 4.5 -6.46875 C 4.226562 -6.445312 3.945312 -6.394531 3.65625 -6.3125 C 3.4375 -6.269531 3.242188 -6.226562 3.078125 -6.1875 C 2.921875 -6.144531 2.742188 -6.066406 2.546875 -5.953125 C 2.472656 -5.910156 2.382812 -5.863281 2.28125 -5.8125 C 2.175781 -5.757812 2.113281 -5.742188 2.09375 -5.765625 C 2.039062 -5.796875 1.96875 -5.890625 1.875 -6.046875 C 1.78125 -6.203125 1.679688 -6.378906 1.578125 -6.578125 C 1.484375 -6.785156 1.390625 -6.960938 1.296875 -7.109375 C 1.347656 -7.222656 1.410156 -7.300781 1.484375 -7.34375 C 1.566406 -7.382812 1.644531 -7.421875 1.71875 -7.453125 C 2.125 -7.609375 2.53125 -7.734375 2.9375 -7.828125 C 3.351562 -7.929688 3.773438 -8.003906 4.203125 -8.046875 C 4.859375 -8.097656 5.507812 -8.113281 6.15625 -8.09375 Z M 6.1875 -3.765625 C 6.050781 -3.765625 5.921875 -3.757812 5.796875 -3.75 C 5.679688 -3.75 5.566406 -3.738281 5.453125 -3.71875 C 5.015625 -3.625 4.710938 -3.441406 4.546875 -3.171875 C 4.378906 -2.898438 4.316406 -2.566406 4.359375 -2.171875 C 4.390625 -1.984375 4.472656 -1.820312 4.609375 -1.6875 C 4.742188 -1.5625 4.90625 -1.476562 5.09375 -1.4375 C 5.28125 -1.394531 5.453125 -1.410156 5.609375 -1.484375 C 5.835938 -1.566406 6.035156 -1.71875 6.203125 -1.9375 C 6.171875 -2.226562 6.160156 -2.523438 6.171875 -2.828125 C 6.179688 -3.128906 6.1875 -3.441406 6.1875 -3.765625 Z M 6.1875 -3.765625 "/></g></g></g><g fill="#00bf63" fill-opacity="1"><g transform="translate(108.137172, 26.613909)"><g><path d="M 3.921875 -7.921875 C 4.066406 -7.484375 4.226562 -7.0625 4.40625 -6.65625 C 4.582031 -6.25 4.765625 -5.84375 4.953125 -5.4375 C 5.148438 -5.050781 5.328125 -4.648438 5.484375 -4.234375 C 5.640625 -3.816406 5.828125 -3.398438 6.046875 -2.984375 C 6.328125 -3.804688 6.617188 -4.613281 6.921875 -5.40625 C 7.234375 -6.207031 7.488281 -7.019531 7.6875 -7.84375 C 8.007812 -7.882812 8.3125 -7.890625 8.59375 -7.859375 C 8.875 -7.835938 9.164062 -7.847656 9.46875 -7.890625 C 9.488281 -7.898438 9.507812 -7.894531 9.53125 -7.875 C 9.550781 -7.863281 9.566406 -7.851562 9.578125 -7.84375 C 9.597656 -7.78125 9.597656 -7.726562 9.578125 -7.6875 C 9.554688 -7.65625 9.535156 -7.617188 9.515625 -7.578125 C 9.148438 -6.785156 8.8125 -5.976562 8.5 -5.15625 C 8.1875 -4.34375 7.875 -3.53125 7.5625 -2.71875 C 7.34375 -2.113281 7.101562 -1.519531 6.84375 -0.9375 C 6.59375 -0.351562 6.347656 0.234375 6.109375 0.828125 C 5.972656 1.140625 5.820312 1.4375 5.65625 1.71875 C 5.5 2.007812 5.320312 2.285156 5.125 2.546875 C 4.769531 3.015625 4.285156 3.296875 3.671875 3.390625 C 3.398438 3.429688 3.175781 3.453125 3 3.453125 C 2.832031 3.460938 2.609375 3.453125 2.328125 3.421875 C 2.015625 3.390625 1.679688 3.300781 1.328125 3.15625 C 0.972656 3.019531 0.695312 2.820312 0.5 2.5625 C 0.570312 2.289062 0.6875 2.050781 0.84375 1.84375 C 1.007812 1.632812 1.164062 1.421875 1.3125 1.203125 C 1.394531 1.179688 1.457031 1.179688 1.5 1.203125 C 1.550781 1.222656 1.597656 1.25 1.640625 1.28125 C 1.910156 1.457031 2.203125 1.578125 2.515625 1.640625 C 2.890625 1.710938 3.242188 1.648438 3.578125 1.453125 C 3.921875 1.265625 4.15625 1.007812 4.28125 0.6875 C 3.601562 -0.707031 2.914062 -2.109375 2.21875 -3.515625 C 1.519531 -4.921875 0.875 -6.367188 0.28125 -7.859375 C 0.3125 -7.878906 0.457031 -7.890625 0.71875 -7.890625 C 0.976562 -7.890625 1.300781 -7.882812 1.6875 -7.875 C 2.070312 -7.875 2.460938 -7.875 2.859375 -7.875 C 3.265625 -7.882812 3.617188 -7.898438 3.921875 -7.921875 Z M 3.921875 -7.921875 "/></g></g></g><g fill="#00bf63" fill-opacity="1"><g transform="translate(117.98029, 26.613909)"><g><path d="M 6.15625 -8.09375 C 6.625 -8.082031 7.054688 -7.984375 7.453125 -7.796875 C 7.859375 -7.617188 8.234375 -7.390625 8.578125 -7.109375 C 8.691406 -7.023438 8.796875 -6.9375 8.890625 -6.84375 C 8.984375 -6.75 9.070312 -6.648438 9.15625 -6.546875 C 9.320312 -6.328125 9.441406 -6.09375 9.515625 -5.84375 C 9.597656 -5.59375 9.644531 -5.335938 9.65625 -5.078125 C 9.664062 -4.609375 9.671875 -4.132812 9.671875 -3.65625 C 9.679688 -3.175781 9.679688 -2.703125 9.671875 -2.234375 C 9.660156 -1.921875 9.65625 -1.597656 9.65625 -1.265625 C 9.65625 -0.941406 9.664062 -0.625 9.6875 -0.3125 C 9.695312 -0.257812 9.695312 -0.207031 9.6875 -0.15625 C 9.6875 -0.113281 9.664062 -0.0625 9.625 0 C 9.226562 -0.0390625 8.832031 -0.046875 8.4375 -0.015625 C 8.039062 0.00390625 7.640625 0.015625 7.234375 0.015625 C 7.097656 -0.128906 6.976562 -0.28125 6.875 -0.4375 C 6.769531 -0.59375 6.632812 -0.710938 6.46875 -0.796875 C 6.425781 -0.796875 6.390625 -0.78125 6.359375 -0.75 C 6.328125 -0.726562 6.296875 -0.707031 6.265625 -0.6875 C 5.972656 -0.4375 5.660156 -0.242188 5.328125 -0.109375 C 4.992188 0.0234375 4.640625 0.117188 4.265625 0.171875 C 3.910156 0.203125 3.554688 0.210938 3.203125 0.203125 C 2.859375 0.203125 2.519531 0.132812 2.1875 0 C 1.8125 -0.15625 1.5 -0.367188 1.25 -0.640625 C 1.007812 -0.910156 0.84375 -1.242188 0.75 -1.640625 C 0.582031 -2.398438 0.691406 -3.113281 1.078125 -3.78125 C 1.273438 -4.101562 1.515625 -4.359375 1.796875 -4.546875 C 2.078125 -4.742188 2.394531 -4.890625 2.75 -4.984375 C 3.46875 -5.191406 4.195312 -5.28125 4.9375 -5.25 C 5.070312 -5.25 5.203125 -5.238281 5.328125 -5.21875 C 5.460938 -5.207031 5.597656 -5.207031 5.734375 -5.21875 C 5.785156 -5.226562 5.847656 -5.226562 5.921875 -5.21875 C 6.003906 -5.207031 6.070312 -5.207031 6.125 -5.21875 C 6.15625 -5.5 6.101562 -5.734375 5.96875 -5.921875 C 5.832031 -6.117188 5.632812 -6.257812 5.375 -6.34375 C 5.070312 -6.457031 4.78125 -6.5 4.5 -6.46875 C 4.226562 -6.445312 3.945312 -6.394531 3.65625 -6.3125 C 3.4375 -6.269531 3.242188 -6.226562 3.078125 -6.1875 C 2.921875 -6.144531 2.742188 -6.066406 2.546875 -5.953125 C 2.472656 -5.910156 2.382812 -5.863281 2.28125 -5.8125 C 2.175781 -5.757812 2.113281 -5.742188 2.09375 -5.765625 C 2.039062 -5.796875 1.96875 -5.890625 1.875 -6.046875 C 1.78125 -6.203125 1.679688 -6.378906 1.578125 -6.578125 C 1.484375 -6.785156 1.390625 -6.960938 1.296875 -7.109375 C 1.347656 -7.222656 1.410156 -7.300781 1.484375 -7.34375 C 1.566406 -7.382812 1.644531 -7.421875 1.71875 -7.453125 C 2.125 -7.609375 2.53125 -7.734375 2.9375 -7.828125 C 3.351562 -7.929688 3.773438 -8.003906 4.203125 -8.046875 C 4.859375 -8.097656 5.507812 -8.113281 6.15625 -8.09375 Z M 6.1875 -3.765625 C 6.050781 -3.765625 5.921875 -3.757812 5.796875 -3.75 C 5.679688 -3.75 5.566406 -3.738281 5.453125 -3.71875 C 5.015625 -3.625 4.710938 -3.441406 4.546875 -3.171875 C 4.378906 -2.898438 4.316406 -2.566406 4.359375 -2.171875 C 4.390625 -1.984375 4.472656 -1.820312 4.609375 -1.6875 C 4.742188 -1.5625 4.90625 -1.476562 5.09375 -1.4375 C 5.28125 -1.394531 5.453125 -1.410156 5.609375 -1.484375 C 5.835938 -1.566406 6.035156 -1.71875 6.203125 -1.9375 C 6.171875 -2.226562 6.160156 -2.523438 6.171875 -2.828125 C 6.179688 -3.128906 6.1875 -3.441406 6.1875 -3.765625 Z M 6.1875 -3.765625 "/></g></g></g></svg>